<?xml version="1.0" encoding="UTF-8" standalone="no"?>
<svg
   version="1.1"
   width="300"
   height="54.453053"
   viewBox="0 0 300.00001 54.453054"
   id="svg3"
   sodipodi:docname="logo-WhiteText-small.svg"
   inkscape:version="1.4.2 (ebf0e940d0, 2025-05-08)"
   xmlns:inkscape="http://www.inkscape.org/namespaces/inkscape"
   xmlns:sodipodi="http://sodipodi.sourceforge.net/DTD/sodipodi-0.dtd"
   xmlns="http://www.w3.org/2000/svg"
   xmlns:svg="http://www.w3.org/2000/svg">
  <defs
     id="defs3" />
  <sodipodi:namedview
     id="namedview3"
     pagecolor="#ffffff"
     bordercolor="#000000"
     borderopacity="0.25"
     inkscape:showpageshadow="2"
     inkscape:pageopacity="0.0"
     inkscape:pagecheckerboard="0"
     inkscape:deskcolor="#d1d1d1"
     inkscape:zoom="1.9416264"
     inkscape:cx="161.97761"
     inkscape:cy="58.713665"
     inkscape:window-width="2544"
     inkscape:window-height="1363"
     inkscape:window-x="1928"
     inkscape:window-y="32"
     inkscape:window-maximized="0"
     inkscape:current-layer="g3" />
  <g
     transform="matrix(8.1181065,0,0,8.1181065,-698.15716,-154.24404)"
     id="g3">
    <defs
       id="SvgjsDefs17868">
      <linearGradient
         id="SvgjsLinearGradient17875">
        <stop
           id="SvgjsStop17876"
           stop-color="#51504f"
           offset="0" />
        <stop
           id="SvgjsStop17877"
           stop-color="#939598"
           offset="0.5" />
        <stop
           id="SvgjsStop17878"
           stop-color="#51504f"
           offset="1" />
      </linearGradient>
      <linearGradient
         id="SvgjsLinearGradient17879">
        <stop
           id="SvgjsStop17880"
           stop-color="#51504f"
           offset="0" />
        <stop
           id="SvgjsStop17881"
           stop-color="#939598"
           offset="0.5" />
        <stop
           id="SvgjsStop17882"
           stop-color="#51504f"
           offset="1" />
      </linearGradient>
    </defs>
    <g
       id="SvgjsG17870"
       featureKey="nameFeature-0"
       transform="matrix(0.08052574,0,0,0.08052574,85.930974,18.079754)"
       fill="url(#SvgjsLinearGradient17875)"
       style="fill:#ffffff">
      <path
         d="m 8.1143,11.429 v 6.2857 H 0.8572 V 11.429 Z m 1.1428,0 h 15.886 v 6.2857 H 16.686 v 22.286 H 9.2574 V 11.4297 Z M 36.286,40 h -3.1429 l -4.2857,-4.2857 v -24.286 h 7.4286 v 28.571 z m 1.143,-28.571 h 15.714 v 6.2857 H 37.429 Z m 13.428,11.142 v 6.2857 H 37.428 V 22.571 Z M 37.429,40 V 33.7143 H 53.143 V 40 Z m 28.857,0 h -3.1429 l -4.2857,-4.2857 v -20 l 4.2857,-4.2857 h 3.1429 v 28.571 z m 12.571,-28.571 4.2857,4.2857 v 4.2857 h -5.4286 l -2.2857,-2.2857 h -8 V 11.429 h 11.429 z m -3.428,22.2853 2.2857,-2.2857 h 5.4286 v 4.2857 L 78.8576,40 h -11.429 v -6.2857 h 8 z M 96.343,40 h -7.4857 l 0.05714,-28.571 h 7.4286 V 40 Z m 10.286,-28.571 h 7.4286 V 40 H 106.629 V 28.857 h -9.1429 v -6.2857 h 9.1429 v -11.143 z m 30.85629,0 h 7.4286 V 40 h -6.5714 l -18.571,-26.686 v -1.8857 h 6.5714 l 11.143,15.886 v -15.886 z m -17.7139,3.771 7.4286,10.629 V 40 h -7.4286 z M 158.05743,40 h -3.1429 l -4.2857,-4.2857 v -20 l 4.2857,-4.2857 h 3.1429 v 28.571 z m 13.428,-28.571 4.2857,4.2857 v 20 l -4.2857,4.2857 h -12.286 v -6.2857 h 9.1429 v -16 h -9.1429 V 11.429 Z M 188.91457,40 h -3.1429 l -4.2857,-4.2857 v -24.286 h 7.4286 v 28.571 z m 1.143,-6.2857 h 14.286 V 40 h -14.286 z M 216.05743,40 h -3.1429 l -4.2857,-4.2857 v -20 l 4.2857,-4.2857 h 3.1429 v 28.571 z m 13.428,-28.571 4.2857,4.2857 v 20 l -4.2857,4.2857 h -12.286 v -6.2857 h 9.1429 v -16 h -9.1429 V 11.429 Z M 246.91457,40 h -3.1429 l -4.2857,-4.2857 v -20 l 4.2857,-4.2857 h 3.1429 v 28.571 z m 14,-28.571 4.2857,4.2857 v 4.2857 h -5.4286 l -2.2857,-2.2857 h -9.4286 V 11.429 h 12.857 z m -9.715,17.428 v -6.2857 h 14 v 13.143 L 260.91387,40 h -12.857 v -6.2857 h 9.7143 v -4.8571 h -6.5714 z m 31.31457,-6.457 -3.8857,7.1429 -9.1429,-14.686 v -3.4286 h 6.5714 z m 7.257,-10.971 h 6.5714 v 3.4286 l -9.7143,15.714 v 9.4286 h -7.3714 V 30.5145 Z M 322.34314,40 h -7.4286 V 11.429 h 7.4286 z m 13.428,-28.571 4.2857,4.2857 v 12 l -4.2857,4.2857 h -12.286 v -6.2857 h 9.1429 v -8 h -9.1429 V 11.429 Z M 353.20029,40 h -7.4286 V 15.714 l 4.2857,-4.2857 h 3.1429 v 28.571 z m 13.428,-28.571 4.2857,4.2857 v 24.286 h -7.4286 v -8 h -9.1429 V 25.715 h 9.1429 v -8 h -9.1429 v -6.2857 h 12.286 z M 384.05743,40 h -7.4286 V 11.429 h 7.4286 z m 18.285,-24.286 v 10 l -4.2857,4.2857 4.2857,6.5714 v 3.4286 h -6.8571 l -5.9429,-9.7143 h -4.3429 v -6.2857 h 9.7143 V 17.714 h -9.7143 v -6.2857 h 12.857 z m 10.97187,-4.285 v 6.2857 h -7.2571 V 11.429 Z m 1.1428,0 h 15.886 v 6.2857 h -8.4571 v 22.286 h -7.4286 v -28.571 z m 27.0289,11.142 h 14 l 4.2857,4.2857 v 8.8571 l -4.2857,4.2857 h -3.1429 v -11.143 h -14 l -4.2857,-4.2857 v -8.8571 l 4.2857,-4.2857 h 3.1429 z m 14,-11.142 4.2857,4.2857 v 4.2857 h -5.4286 l -2.2857,-2.2857 h -9.4286 V 11.429 h 12.857 z M 451.2,33.7143 V 40 h -12.857 l -4.2857,-4.2857 v -4.2857 h 5.4286 l 2.2857,2.2857 h 9.4286 z"
         id="path2"
         style="fill:#ffffff" />
    </g>
    <g
       id="SvgjsG17871"
       featureKey="sloganFeature-0"
       transform="matrix(0.09507323,0,0,0.09507323,85.935351,23.393525)"
       fill="url(#SvgjsLinearGradient17879)"
       style="fill:#ffffff">
      <path
         d="M 8.08,7.47 Q 7.06,7.18 6.16,7.18 4.72,7.18 3.85,7.75 2.98,8.32 2.98,9.3 q 0,0.86 0.48,1.4 0.48,0.54 1.18,0.85 0.7,0.31 1.92,0.69 1.42,0.42 2.29,0.83 0.87,0.41 1.48,1.19 0.61,0.78 0.61,2.06 0,1.12 -0.63,1.98 Q 9.68,19.16 8.54,19.63 7.4,20.1 5.92,20.1 4.46,20.1 3.07,19.52 1.68,18.94 0.68,17.98 l 0.64,-1.14 q 0.94,0.92 2.18,1.44 1.24,0.52 2.44,0.52 1.6,0 2.54,-0.65 Q 9.42,17.5 9.42,16.4 9.42,15.52 8.94,14.96 8.46,14.4 7.76,14.1 7.06,13.8 5.8,13.4 4.38,12.96 3.52,12.57 2.66,12.18 2.06,11.41 1.46,10.64 1.46,9.4 q 0,-1.06 0.6,-1.86 0.6,-0.8 1.68,-1.23 1.08,-0.43 2.5,-0.43 1.14,0 2.29,0.34 1.15,0.34 2.03,0.9 L 9.96,8.3 Q 9.1,7.76 8.08,7.47 Z M 27.718,6.85 q 1.67,0.95 2.65,2.57 0.98,1.62 0.98,3.56 0,1.94 -0.98,3.58 -0.98,1.64 -2.65,2.6 -1.67,0.96 -3.67,0.96 -2,0 -3.67,-0.96 -1.67,-0.96 -2.65,-2.6 -0.98,-1.64 -0.98,-3.58 0,-1.94 0.98,-3.56 0.98,-1.62 2.65,-2.57 1.67,-0.95 3.67,-0.95 2,0 3.67,0.95 z m -6.61,1.07 q -1.36,0.78 -2.16,2.12 -0.8,1.34 -0.8,2.94 0,1.6 0.8,2.96 0.8,1.36 2.16,2.15 1.36,0.79 2.96,0.79 1.58,0 2.93,-0.79 1.35,-0.79 2.15,-2.15 0.8,-1.36 0.8,-2.96 0,-1.6 -0.8,-2.94 -0.8,-1.34 -2.15,-2.12 -1.35,-0.78 -2.93,-0.78 -1.6,0 -2.96,0.78 z m 17.028,-1.9 h 1.38 v 12.74 h 6.16 V 20 h -7.54 z m 16.238,11.66 q 1.17,1.2 3.25,1.2 2.08,0 3.24,-1.2 1.16,-1.2 1.16,-3.36 V 6 h 1.38 v 8.32 q 0,2.72 -1.53,4.26 -1.53,1.54 -4.25,1.54 -2.72,0 -4.26,-1.54 -1.54,-1.54 -1.54,-4.26 V 6 h 1.38 v 8.32 q 0,2.16 1.17,3.36 z M 69.252,6 h 10.62 v 1.26 h -4.62 V 20 h -1.38 V 7.26 h -4.62 z m 4.68,15.22 h 1.28 l -1.02,3.12 h -1 z M 86.04,6.02 h 1.38 V 20 h -1.38 z m 9.528,0 h 1.38 V 20 h -1.38 z m 24.656,1.45 q -1.02,-0.29 -1.92,-0.29 -1.44,0 -2.31,0.57 -0.87,0.57 -0.87,1.55 0,0.86 0.48,1.4 0.48,0.54 1.18,0.85 0.7,0.31 1.92,0.69 1.42,0.42 2.29,0.83 0.87,0.41 1.48,1.19 0.61,0.78 0.61,2.06 0,1.12 -0.63,1.98 -0.63,0.86 -1.77,1.33 -1.14,0.47 -2.62,0.47 -1.46,0 -2.85,-0.58 -1.39,-0.58 -2.39,-1.54 l 0.64,-1.14 q 0.94,0.92 2.18,1.44 1.24,0.52 2.44,0.52 1.6,0 2.54,-0.65 0.94,-0.65 0.94,-1.75 0,-0.88 -0.48,-1.44 -0.48,-0.56 -1.18,-0.86 -0.7,-0.3 -1.96,-0.7 -1.42,-0.44 -2.28,-0.83 -0.86,-0.39 -1.46,-1.16 -0.6,-0.77 -0.6,-2.01 0,-1.06 0.6,-1.86 0.6,-0.8 1.68,-1.23 1.08,-0.43 2.5,-0.43 1.14,0 2.29,0.34 1.15,0.34 2.03,0.9 l -0.6,1.18 q -0.86,-0.54 -1.88,-0.83 z m 19.638,-0.62 q 1.67,0.95 2.65,2.57 0.98,1.62 0.98,3.56 0,1.94 -0.98,3.58 -0.98,1.64 -2.65,2.6 -1.67,0.96 -3.67,0.96 -2,0 -3.67,-0.96 -1.67,-0.96 -2.65,-2.6 -0.98,-1.64 -0.98,-3.58 0,-1.94 0.98,-3.56 0.98,-1.62 2.65,-2.57 1.67,-0.95 3.67,-0.95 2,0 3.67,0.95 z m -6.61,1.07 q -1.36,0.78 -2.16,2.12 -0.8,1.34 -0.8,2.94 0,1.6 0.8,2.96 0.8,1.36 2.16,2.15 1.36,0.79 2.96,0.79 1.58,0 2.93,-0.79 1.35,-0.79 2.15,-2.15 0.8,-1.36 0.8,-2.96 0,-1.6 -0.8,-2.94 -0.8,-1.34 -2.15,-2.12 -1.35,-0.78 -2.93,-0.78 -1.6,0 -2.96,0.78 z m 17.028,-1.9 h 1.38 v 12.74 h 6.16 V 20 h -7.54 z m 14.008,0 h 1.38 V 20 h -1.38 z m 18.798,0.92 q 1.65,0.92 2.6,2.53 0.95,1.61 0.95,3.55 0,1.94 -0.95,3.54 -0.95,1.6 -2.61,2.52 -1.66,0.92 -3.68,0.92 h -5.58 V 6.02 h 5.62 q 2,0 3.65,0.92 z M 182.376,18 q 1.32,-0.76 2.09,-2.07 0.77,-1.31 0.77,-2.91 0,-1.6 -0.78,-2.92 -0.78,-1.32 -2.11,-2.08 -1.33,-0.76 -2.93,-0.76 h -4.22 v 11.5 h 4.28 q 1.58,0 2.9,-0.76 z M 193.424,6.02 h 9.36 v 1.24 h -7.98 v 5 h 7.14 v 1.24 h -7.14 v 5.26 h 8.24 V 20 h -9.62 z"
         id="path3"
         style="fill:#ffffff" />
    </g>
  </g>
</svg>
