<svg width="65" height="65" viewBox="0 0 17.198 17.198" xml:space="preserve" xmlns:xlink="http://www.w3.org/1999/xlink" xmlns="http://www.w3.org/2000/svg"><defs><linearGradient id="a"><stop stop-color="#51504f" offset="0"/><stop stop-color="#939598" offset=".5"/><stop stop-color="#51504f" offset="1"/></linearGradient><linearGradient xlink:href="#a" id="b" gradientTransform="scale(4.00765 .24952)" x1=".214" y1="45.799" x2="114.723" y2="45.799" gradientUnits="userSpaceOnUse"/></defs><g style="stroke-width:31.2721;stroke-dasharray:none"><g style="stroke-width:107.171;stroke-dasharray:none"><g style="stroke-width:38.7558;stroke-dasharray:none"><g style="stroke-width:38.7558;stroke-dasharray:none"><path d="M69.974 34.035v3.929c6.803 5.711 11.137 14.275 11.137 23.833 0 10.928-5.665 20.556-14.211 26.105V59.087l-9.219-5.079v37.938c-1.005.256-2.03.463-3.071.618v-58.51l-9.217-5.082v63.591a30.883 30.883 0 0 1-3.073-.618V9.071l-9.217-5.08v83.912c-8.547-5.55-14.211-15.179-14.211-26.106 0-9.558 4.333-18.122 11.138-23.833v-3.929c-8.619 6.218-14.241 16.345-14.241 27.762 0 18.864 15.348 34.212 34.212 34.212 18.865 0 34.213-15.348 34.213-34.212-.001-11.417-5.623-21.544-14.24-27.762z" style="stroke-width:75.5586;stroke-dasharray:none" transform="matrix(.25134 0 0 .1869 -3.968 -.746)" fill="#fe904d"/></g></g></g></g></svg>