<svg width="300" height="54.453" xmlns="http://www.w3.org/2000/svg"><g transform="matrix(8.1181 0 0 8.1181 -698.157 -154.244)"><defs><linearGradient id="a"><stop stop-color="#51504f" offset="0"/><stop stop-color="#939598" offset=".5"/><stop stop-color="#51504f" offset="1"/></linearGradient><linearGradient id="b"><stop stop-color="#51504f" offset="0"/><stop stop-color="#939598" offset=".5"/><stop stop-color="#51504f" offset="1"/></linearGradient></defs><path d="M8.114 11.429v6.286H.857v-6.286zm1.143 0h15.886v6.286h-8.457V40H9.257V11.43zM36.286 40h-3.143l-4.286-4.286V11.428h7.429V40zm1.143-28.571h15.714v6.286H37.429zm13.428 11.142v6.286H37.428V22.57zM37.429 40v-6.286h15.714V40zm28.857 0h-3.143l-4.286-4.286v-20l4.286-4.285h3.143v28.57zm12.571-28.571 4.286 4.286V20h-5.429l-2.286-2.285h-8v-6.286h11.43zm-3.428 22.285 2.286-2.285h5.428v4.285L78.858 40h-11.43v-6.286h8zM96.343 40h-7.486l.057-28.571h7.429V40zm10.286-28.571h7.429V40h-7.429V28.857h-9.143v-6.286h9.143V11.428zm30.856 0h7.429V40h-6.572l-18.57-26.686v-1.886h6.57l11.144 15.886V11.428zM119.771 15.2l7.429 10.629V40h-7.429zM158.057 40h-3.142l-4.286-4.286v-20l4.286-4.285h3.142v28.57zm13.428-28.571 4.286 4.286v20L171.485 40H159.2v-6.285h9.143v-16H159.2v-6.286zM188.915 40h-3.143l-4.286-4.286V11.428h7.429V40zm1.143-6.286h14.286V40h-14.286zm26 6.286h-3.143l-4.286-4.286v-20l4.286-4.285h3.142v28.57zm13.427-28.571 4.286 4.286v20L229.485 40H217.2v-6.285h9.143v-16H217.2v-6.286zM246.915 40h-3.143l-4.286-4.286v-20l4.286-4.285h3.143v28.57zm14-28.571 4.285 4.286V20h-5.428l-2.286-2.285h-9.429v-6.286h12.857zM251.2 28.857v-6.286h14v13.143L260.914 40h-12.857v-6.286h9.714v-4.857H251.2zm31.314-6.457-3.886 7.143-9.142-14.686v-3.429h6.57zm7.257-10.971h6.572v3.429l-9.715 15.714V40h-7.371v-9.485zM322.343 40h-7.428V11.429h7.428zm13.428-28.571 4.286 4.286v12L335.77 32h-12.286v-6.285h9.143v-8h-9.143v-6.286zM353.201 40h-7.43V15.714l4.286-4.286h3.143V40zm13.427-28.571 4.286 4.286V40h-7.429v-8h-9.143v-6.286h9.143v-8h-9.143v-6.286h12.286zM384.058 40h-7.43V11.429h7.43zm18.284-24.286v10L398.057 30l4.285 6.571V40h-6.857l-5.943-9.715H385.2V24h9.714v-6.286H385.2v-6.286h12.857zm10.972-4.285v6.286h-7.257v-6.286zm1.143 0h15.886v6.286h-8.457V40h-7.429V11.43zm27.029 11.142h14l4.286 4.286v8.857L455.486 40h-3.143V28.855h-14l-4.286-4.285v-8.857l4.286-4.286h3.143zm14-11.142 4.286 4.286V20h-5.429l-2.286-2.285h-9.428v-6.286h12.857zM451.2 33.714V40h-12.857l-4.286-4.286V31.43h5.429l2.286 2.285h9.428z" style="fill:#fff" transform="matrix(.08053 0 0 .08053 85.931 18.08)" fill="url(#a)"/><path d="M8.08 7.47q-1.02-.29-1.92-.29-1.44 0-2.31.57-.87.57-.87 1.55 0 .86.48 1.4.48.54 1.18.85.7.31 1.92.69 1.42.42 2.29.83.87.41 1.48 1.19t.61 2.06q0 1.12-.63 1.98-.63.86-1.77 1.33-1.14.47-2.62.47-1.46 0-2.85-.58-1.39-.58-2.39-1.54l.64-1.14q.94.92 2.18 1.44 1.24.52 2.44.52 1.6 0 2.54-.65t.94-1.75q0-.88-.48-1.44-.48-.56-1.18-.86-.7-.3-1.96-.7-1.42-.44-2.28-.83-.86-.39-1.46-1.16-.6-.77-.6-2.01 0-1.06.6-1.86t1.68-1.23q1.08-.43 2.5-.43 1.14 0 2.29.34 1.15.34 2.03.9l-.6 1.18q-.86-.54-1.88-.83zm19.638-.62q1.67.95 2.65 2.57.98 1.62.98 3.56t-.98 3.58q-.98 1.64-2.65 2.6-1.67.96-3.67.96t-3.67-.96q-1.67-.96-2.65-2.6-.98-1.64-.98-3.58 0-1.94.98-3.56t2.65-2.57q1.67-.95 3.67-.95t3.67.95zm-6.61 1.07q-1.36.78-2.16 2.12t-.8 2.94q0 1.6.8 2.96.8 1.36 2.16 2.15 1.36.79 2.96.79 1.58 0 2.93-.79t2.15-2.15q.8-1.36.8-2.96 0-1.6-.8-2.94-.8-1.34-2.15-2.12-1.35-.78-2.93-.78-1.6 0-2.96.78zm17.028-1.9h1.38v12.74h6.16V20h-7.54zm16.238 11.66q1.17 1.2 3.25 1.2t3.24-1.2q1.16-1.2 1.16-3.36V6h1.38v8.32q0 2.72-1.53 4.26-1.53 1.54-4.25 1.54-2.72 0-4.26-1.54-1.54-1.54-1.54-4.26V6h1.38v8.32q0 2.16 1.17 3.36zM69.252 6h10.62v1.26h-4.62V20h-1.38V7.26h-4.62zm4.68 15.22h1.28l-1.02 3.12h-1zM86.04 6.02h1.38V20h-1.38zm9.528 0h1.38V20h-1.38zm24.656 1.45q-1.02-.29-1.92-.29-1.44 0-2.31.57-.87.57-.87 1.55 0 .86.48 1.4.48.54 1.18.85.7.31 1.92.69 1.42.42 2.29.83.87.41 1.48 1.19t.61 2.06q0 1.12-.63 1.98-.63.86-1.77 1.33-1.14.47-2.62.47-1.46 0-2.85-.58-1.39-.58-2.39-1.54l.64-1.14q.94.92 2.18 1.44 1.24.52 2.44.52 1.6 0 2.54-.65t.94-1.75q0-.88-.48-1.44-.48-.56-1.18-.86-.7-.3-1.96-.7-1.42-.44-2.28-.83-.86-.39-1.46-1.16-.6-.77-.6-2.01 0-1.06.6-1.86t1.68-1.23q1.08-.43 2.5-.43 1.14 0 2.29.34 1.15.34 2.03.9l-.6 1.18q-.86-.54-1.88-.83zm19.638-.62q1.67.95 2.65 2.57.98 1.62.98 3.56t-.98 3.58q-.98 1.64-2.65 2.6-1.67.96-3.67.96t-3.67-.96q-1.67-.96-2.65-2.6-.98-1.64-.98-3.58 0-1.94.98-3.56t2.65-2.57q1.67-.95 3.67-.95t3.67.95zm-6.61 1.07q-1.36.78-2.16 2.12t-.8 2.94q0 1.6.8 2.96.8 1.36 2.16 2.15 1.36.79 2.96.79 1.58 0 2.93-.79t2.15-2.15q.8-1.36.8-2.96 0-1.6-.8-2.94-.8-1.34-2.15-2.12-1.35-.78-2.93-.78-1.6 0-2.96.78zm17.028-1.9h1.38v12.74h6.16V20h-7.54zm14.008 0h1.38V20h-1.38zm18.798.92q1.65.92 2.6 2.53.95 1.61.95 3.55 0 1.94-.95 3.54t-2.61 2.52q-1.66.92-3.68.92h-5.58V6.02h5.62q2 0 3.65.92zm-.71 11.06q1.32-.76 2.09-2.07.77-1.31.77-2.91t-.78-2.92q-.78-1.32-2.11-2.08-1.33-.76-2.93-.76h-4.22v11.5h4.28q1.58 0 2.9-.76zm11.048-11.98h9.36v1.24h-7.98v5h7.14v1.24h-7.14v5.26h8.24V20h-9.62z" style="fill:#fff" transform="matrix(.09507 0 0 .09507 85.935 23.394)" fill="url(#b)"/></g></svg>