
        <svg xmlns="http://www.w3.org/2000/svg" xmlns:xlink="http://www.w3.org/1999/xlink" version="1.1" width="3162.362129204631" height="928.4652360895583" viewBox="0 0 3162.362129204631 928.4652360895583">
			
			<g transform="scale(8.118106460231553) translate(10, 10)">
				<defs id="SvgjsDefs17868"><linearGradient id="SvgjsLinearGradient17875"><stop id="SvgjsStop17876" stop-color="#51504f" offset="0"/><stop id="SvgjsStop17877" stop-color="#939598" offset="0.5"/><stop id="SvgjsStop17878" stop-color="#51504f" offset="1"/></linearGradient><linearGradient id="SvgjsLinearGradient17879"><stop id="SvgjsStop17880" stop-color="#51504f" offset="0"/><stop id="SvgjsStop17881" stop-color="#939598" offset="0.5"/><stop id="SvgjsStop17882" stop-color="#51504f" offset="1"/></linearGradient></defs><g id="SvgjsG17869" featureKey="symbolFeature-0" transform="matrix(0.9712194846708805,0,0,0.9712194846708805,-15.33458308747209,1.1238628662527335)" fill="#fff"><path xmlns="http://www.w3.org/2000/svg" d="M69.974,34.035v3.929c6.803,5.711,11.137,14.275,11.137,23.833c0,10.928-5.665,20.556-14.211,26.105V59.087  l-9.219-5.079v37.938c-1.005,0.256-2.03,0.463-3.071,0.618v-58.51l-9.217-5.082v63.591c-1.042-0.155-2.067-0.362-3.073-0.618V9.071  l-9.217-5.08v83.912c-8.547-5.55-14.211-15.179-14.211-26.106c0-9.558,4.333-18.122,11.138-23.833v-3.929  c-8.619,6.218-14.241,16.345-14.241,27.762c0,18.864,15.348,34.212,34.212,34.212c18.865,0,34.213-15.348,34.213-34.212  C84.213,50.38,78.591,40.253,69.974,34.035z"/></g><g id="SvgjsG17870" featureKey="nameFeature-0" transform="matrix(0.6178586863847916,0,0,0.6178586863847916,85.47037173861368,11.93911301081907)" fill="#fff"><path d="M8.1143 11.428999999999998 l0 6.2857 l-7.2571 0 l0 -6.2857 l7.2571 0 z M9.2571 11.428999999999998 l15.886 0 l0 6.2857 l-8.4571 0 l0 22.286 l-7.4286 0 l0 -28.571 z M36.286 40 l-3.1429 0 l-4.2857 -4.2857 l0 -24.286 l7.4286 0 l0 28.571 z M37.429 11.428999999999998 l15.714 0 l0 6.2857 l-15.714 0 l0 -6.2857 z M50.857 22.571 l0 6.2857 l-13.429 0 l0 -6.2857 l13.429 0 z M37.429 40 l0 -6.2857 l15.714 0 l0 6.2857 l-15.714 0 z M66.286 40 l-3.1429 0 l-4.2857 -4.2857 l0 -20 l4.2857 -4.2857 l3.1429 0 l0 28.571 z M78.857 11.428999999999998 l4.2857 4.2857 l0 4.2857 l-5.4286 0 l-2.2857 -2.2857 l-8 0 l0 -6.2857 l11.429 0 z M75.429 33.7143 l2.2857 -2.2857 l5.4286 0 l0 4.2857 l-4.2857 4.2857 l-11.429 0 l0 -6.2857 l8 0 z M96.343 40 l-7.4857 0 l0.057143 -28.571 l7.4286 0 l0 28.571 z M106.629 11.428999999999998 l7.4286 0 l0 28.571 l-7.4286 0 l0 -11.143 l-9.1429 0 l0 -6.2857 l9.1429 0 l0 -11.143 z M137.4852857142857 11.428999999999998 l7.4286 0 l0 28.571 l-6.5714 0 l-18.571 -26.686 l0 -1.8857 l6.5714 0 l11.143 15.886 l0 -15.886 z M119.77138571428571 15.2 l7.4286 10.629 l0 14.171 l-7.4286 0 l0 -24.8 z M158.05742857142857 40 l-3.1429 0 l-4.2857 -4.2857 l0 -20 l4.2857 -4.2857 l3.1429 0 l0 28.571 z M171.48542857142857 11.428999999999998 l4.2857 4.2857 l0 20 l-4.2857 4.2857 l-12.286 0 l0 -6.2857 l9.1429 0 l0 -16 l-9.1429 0 l0 -6.2857 l12.286 0 z M188.91457142857143 40 l-3.1429 0 l-4.2857 -4.2857 l0 -24.286 l7.4286 0 l0 28.571 z M190.05757142857144 33.7143 l14.286 0 l0 6.2857 l-14.286 0 l0 -6.2857 z M216.05742857142857 40 l-3.1429 0 l-4.2857 -4.2857 l0 -20 l4.2857 -4.2857 l3.1429 0 l0 28.571 z M229.48542857142857 11.428999999999998 l4.2857 4.2857 l0 20 l-4.2857 4.2857 l-12.286 0 l0 -6.2857 l9.1429 0 l0 -16 l-9.1429 0 l0 -6.2857 l12.286 0 z M246.91457142857143 40 l-3.1429 0 l-4.2857 -4.2857 l0 -20 l4.2857 -4.2857 l3.1429 0 l0 28.571 z M260.91457142857143 11.428999999999998 l4.2857 4.2857 l0 4.2857 l-5.4286 0 l-2.2857 -2.2857 l-9.4286 0 l0 -6.2857 l12.857 0 z M251.19957142857143 28.857 l0 -6.2857 l14 0 l0 13.143 l-4.2857 4.2857 l-12.857 0 l0 -6.2857 l9.7143 0 l0 -4.8571 l-6.5714 0 z M282.5141428571429 22.4 l-3.8857 7.1429 l-9.1429 -14.686 l0 -3.4286 l6.5714 0 z M289.7711428571429 11.428999999999998 l6.5714 0 l0 3.4286 l-9.7143 15.714 l0 9.4286 l-7.3714 0 l0 -9.4857 z M322.3431428571429 40 l-7.4286 0 l0 -28.571 l7.4286 0 l0 28.571 z M335.7711428571429 11.428999999999998 l4.2857 4.2857 l0 12 l-4.2857 4.2857 l-12.286 0 l0 -6.2857 l9.1429 0 l0 -8 l-9.1429 0 l0 -6.2857 l12.286 0 z M353.2002857142857 40 l-7.4286 0 l0 -24.286 l4.2857 -4.2857 l3.1429 0 l0 28.571 z M366.6282857142857 11.428999999999998 l4.2857 4.2857 l0 24.286 l-7.4286 0 l0 -8 l-9.1429 0 l0 -6.2857 l9.1429 0 l0 -8 l-9.1429 0 l0 -6.2857 l12.286 0 z M384.05742857142855 40 l-7.4286 0 l0 -28.571 l7.4286 0 l0 28.571 z M402.34242857142857 15.713999999999999 l0 10 l-4.2857 4.2857 l4.2857 6.5714 l0 3.4286 l-6.8571 0 l-5.9429 -9.7143 l-4.3429 0 l0 -6.2857 l9.7143 0 l0 -6.2857 l-9.7143 0 l0 -6.2857 l12.857 0 z M413.3143 11.428999999999998 l0 6.2857 l-7.2571 0 l0 -6.2857 l7.2571 0 z M414.45709999999997 11.428999999999998 l15.886 0 l0 6.2857 l-8.4571 0 l0 22.286 l-7.4286 0 l0 -28.571 z M441.486 22.571 l14 0 l4.2857 4.2857 l0 8.8571 l-4.2857 4.2857 l-3.1429 0 l0 -11.143 l-14 0 l-4.2857 -4.2857 l0 -8.8571 l4.2857 -4.2857 l3.1429 0 l0 11.143 z M455.486 11.428999999999998 l4.2857 4.2857 l0 4.2857 l-5.4286 0 l-2.2857 -2.2857 l-9.4286 0 l0 -6.2857 l12.857 0 z M451.2 33.7143 l0 6.2857 l-12.857 0 l-4.2857 -4.2857 l0 -4.2857 l5.4286 0 l2.2857 2.2857 l9.4286 0 z"/></g><g id="SvgjsG17871" featureKey="sloganFeature-0" transform="matrix(0.7294787768141285,0,0,0.7294787768141285,85.5039550787536,52.71066366532294)" fill="#fff"><path d="M8.08 7.470000000000001 q-1.02 -0.29 -1.92 -0.29 q-1.44 0 -2.31 0.57 t-0.87 1.55 q0 0.86 0.48 1.4 t1.18 0.85 t1.92 0.69 q1.42 0.42 2.29 0.83 t1.48 1.19 t0.61 2.06 q0 1.12 -0.63 1.98 t-1.77 1.33 t-2.62 0.47 q-1.46 0 -2.85 -0.58 t-2.39 -1.54 l0.64 -1.14 q0.94 0.92 2.18 1.44 t2.44 0.52 q1.6 0 2.54 -0.65 t0.94 -1.75 q0 -0.88 -0.48 -1.44 t-1.18 -0.86 t-1.96 -0.7 q-1.42 -0.44 -2.28 -0.83 t-1.46 -1.16 t-0.6 -2.01 q0 -1.06 0.6 -1.86 t1.68 -1.23 t2.5 -0.43 q1.14 0 2.29 0.34 t2.03 0.9 l-0.6 1.18 q-0.86 -0.54 -1.88 -0.83 z M27.718000000000004 6.85 q1.67 0.95 2.65 2.57 t0.98 3.56 t-0.98 3.58 t-2.65 2.6 t-3.67 0.96 t-3.67 -0.96 t-2.65 -2.6 t-0.98 -3.58 t0.98 -3.56 t2.65 -2.57 t3.67 -0.95 t3.67 0.95 z M21.108 7.92 q-1.36 0.78 -2.16 2.12 t-0.8 2.94 t0.8 2.96 t2.16 2.15 t2.96 0.79 q1.58 0 2.93 -0.79 t2.15 -2.15 t0.8 -2.96 t-0.8 -2.94 t-2.15 -2.12 t-2.93 -0.78 q-1.6 0 -2.96 0.78 z M38.13600000000001 6.02 l1.38 0 l0 12.74 l6.16 0 l0 1.24 l-7.54 0 l0 -13.98 z M54.374 17.68 q1.17 1.2 3.25 1.2 t3.24 -1.2 t1.16 -3.36 l0 -8.32 l1.38 0 l0 8.32 q0 2.72 -1.53 4.26 t-4.25 1.54 t-4.26 -1.54 t-1.54 -4.26 l0 -8.32 l1.38 0 l0 8.32 q0 2.16 1.17 3.36 z M69.25200000000001 6 l10.62 0 l0 1.26 l-4.62 0 l0 12.74 l-1.38 0 l0 -12.74 l-4.62 0 l0 -1.26 z M73.93200000000002 21.22 l1.28 0 l-1.02 3.12 l-1 0 z M86.04 6.02 l1.38 0 l0 13.98 l-1.38 0 l0 -13.98 z M95.56800000000001 6.02 l1.38 0 l0 13.98 l-1.38 0 l0 -13.98 z M120.22400000000002 7.470000000000001 q-1.02 -0.29 -1.92 -0.29 q-1.44 0 -2.31 0.57 t-0.87 1.55 q0 0.86 0.48 1.4 t1.18 0.85 t1.92 0.69 q1.42 0.42 2.29 0.83 t1.48 1.19 t0.61 2.06 q0 1.12 -0.63 1.98 t-1.77 1.33 t-2.62 0.47 q-1.46 0 -2.85 -0.58 t-2.39 -1.54 l0.64 -1.14 q0.94 0.92 2.18 1.44 t2.44 0.52 q1.6 0 2.54 -0.65 t0.94 -1.75 q0 -0.88 -0.48 -1.44 t-1.18 -0.86 t-1.96 -0.7 q-1.42 -0.44 -2.28 -0.83 t-1.46 -1.16 t-0.6 -2.01 q0 -1.06 0.6 -1.86 t1.68 -1.23 t2.5 -0.43 q1.14 0 2.29 0.34 t2.03 0.9 l-0.6 1.18 q-0.86 -0.54 -1.88 -0.83 z M139.86200000000002 6.85 q1.67 0.95 2.65 2.57 t0.98 3.56 t-0.98 3.58 t-2.65 2.6 t-3.67 0.96 t-3.67 -0.96 t-2.65 -2.6 t-0.98 -3.58 t0.98 -3.56 t2.65 -2.57 t3.67 -0.95 t3.67 0.95 z M133.252 7.92 q-1.36 0.78 -2.16 2.12 t-0.8 2.94 t0.8 2.96 t2.16 2.15 t2.96 0.79 q1.58 0 2.93 -0.79 t2.15 -2.15 t0.8 -2.96 t-0.8 -2.94 t-2.15 -2.12 t-2.93 -0.78 q-1.6 0 -2.96 0.78 z M150.28 6.02 l1.38 0 l0 12.74 l6.16 0 l0 1.24 l-7.54 0 l0 -13.98 z M164.288 6.02 l1.38 0 l0 13.98 l-1.38 0 l0 -13.98 z M183.086 6.9399999999999995 q1.65 0.92 2.6 2.53 t0.95 3.55 t-0.95 3.54 t-2.61 2.52 t-3.68 0.92 l-5.58 0 l0 -13.98 l5.62 0 q2 0 3.65 0.92 z M182.376 18 q1.32 -0.76 2.09 -2.07 t0.77 -2.91 t-0.78 -2.92 t-2.11 -2.08 t-2.93 -0.76 l-4.22 0 l0 11.5 l4.28 0 q1.58 0 2.9 -0.76 z M193.424 6.02 l9.36 0 l0 1.24 l-7.98 0 l0 5 l7.14 0 l0 1.24 l-7.14 0 l0 5.26 l8.24 0 l0 1.24 l-9.62 0 l0 -13.98 z"/></g>
			</g>
		</svg>
	