<svg xmlns="http://www.w3.org/2000/svg" width="3162.362" height="928.465"><g fill="#fff"><path xmlns="http://www.w3.org/2000/svg" d="M508.4 358.652v30.978c53.639 45.029 87.81 112.551 87.81 187.91 0 86.162-44.666 162.074-112.046 205.825V556.174l-72.687-40.045v299.12a243.187 243.187 0 0 1-24.213 4.873v-461.32l-72.671-40.069v501.381a243.495 243.495 0 0 1-24.23-4.872V161.825l-72.67-40.053v661.6c-67.389-43.758-112.046-119.678-112.046-205.831 0-75.36 34.163-142.882 87.817-187.91v-30.979C125.508 407.678 81.18 487.524 81.18 577.541c0 148.732 121.01 269.743 269.743 269.743 148.74 0 269.751-121.01 269.751-269.743-.007-90.017-44.334-169.863-112.274-218.889z"/><path d="M815.739 235.43v31.528h-36.4V235.43h36.4zm5.732 0h79.681v31.528h-42.419v111.783h-37.26V235.434zm135.573 143.308h-15.765l-21.496-21.497V235.427h37.26v143.307zm5.733-143.308h78.819v31.528h-78.82V235.43zm67.352 55.887v31.528h-67.357v-31.528h67.357zm-67.352 87.42V347.21h78.819v31.528h-78.82zm144.742 0h-15.765l-21.496-21.496V256.925l21.496-21.497h15.765v143.308zm63.054-143.307 21.496 21.497v21.496h-27.229l-11.464-11.465h-40.127V235.43h57.326zm-17.194 111.78 11.464-11.465h27.23v21.496l-21.497 21.497h-57.326V347.21h40.127zm104.901 31.528h-37.547l.286-143.308h37.261v143.308zm51.593-143.308h37.26v143.308h-37.26v-55.892h-45.86v-31.528h45.86v-55.891zm154.77 0h37.26v143.308h-32.96l-93.15-133.853v-9.458h32.962l55.891 79.681v-79.681zm-88.85 18.915 37.26 53.313v71.08h-37.26V254.345zm192.037 124.393h-15.764l-21.497-21.497V256.925l21.497-21.497h15.764v143.308zm67.353-143.308 21.496 21.497v100.316l-21.496 21.497h-61.625v-31.528h45.86v-80.254h-45.86V235.43h61.625zm87.421 143.308h-15.764l-21.496-21.497V235.427h37.26v143.307zm5.734-31.528h71.656v31.528h-71.656V347.21zm130.41 31.528h-15.764l-21.496-21.497V256.925l21.496-21.497h15.765v143.308zm67.353-143.308 21.497 21.497v100.316L1926.1 378.74h-61.624v-31.528h45.86v-80.254h-45.86V235.43h61.624zm87.422 143.308h-15.764l-21.496-21.497V256.925l21.496-21.497h15.764v143.308zm70.222-143.308 21.496 21.497v21.496h-27.229l-11.464-11.465h-47.293V235.43h64.49zm-48.729 87.416v-31.528h70.222v65.923l-21.496 21.497h-64.49V347.21h48.726v-24.363h-32.96zm157.07-32.387-19.49 35.828-45.86-73.663v-17.197h32.96zm36.4-55.029h32.96v17.197l-48.725 78.82v47.292h-36.974V331.16zm163.375 143.308h-37.26V235.43h37.26v143.308zm67.353-143.308 21.496 21.497v60.19l-21.496 21.496h-61.625v-31.528h45.86v-40.127h-45.86V235.43h61.625zm87.422 143.308h-37.261V256.923l21.496-21.496h15.765v143.307zm67.352-143.308 21.497 21.497V378.74h-37.26v-40.126h-45.86v-31.529h45.86V266.96h-45.86v-31.528h61.624zm87.422 143.308h-37.26V235.43h37.26v143.308zm91.715-121.815v50.158l-21.496 21.497 21.496 32.96v17.198h-34.394l-29.809-48.725h-21.783v-31.528h48.725v-31.528h-48.725v-31.528h64.489zm55.033-21.493v31.528h-36.4V235.43h36.4zm5.732 0h79.682v31.528h-42.42v111.783h-37.26V235.434zm135.573 55.887h70.222l21.496 21.496v44.426l-21.496 21.496h-15.765v-55.891H2973.7l-21.497-21.497v-44.425l21.497-21.497h15.764v55.892zm70.222-55.887 21.496 21.497v21.496h-27.229l-11.465-11.465h-47.292V235.43h64.489zm-21.498 111.78v31.528h-64.489l-21.496-21.497v-21.496h27.229l11.464 11.465h47.293zM823.16 553.33q-6.04-1.718-11.37-1.718-8.527 0-13.68 3.375t-5.151 9.18q0 5.092 2.842 8.29t6.988 5.034 11.37 4.086q8.41 2.487 13.562 4.915t8.764 7.047 3.613 12.2q0 6.632-3.731 11.725t-10.482 7.876-15.516 2.784q-8.646 0-16.877-3.435t-14.154-9.12l3.79-6.75q5.567 5.447 12.91 8.527t14.45 3.08q9.475 0 15.042-3.85t5.566-10.364q0-5.21-2.842-8.527t-6.988-5.093-11.607-4.146q-8.41-2.605-13.502-4.915t-8.646-6.87-3.554-11.902q0-6.278 3.554-11.015t9.949-7.284 14.804-2.547q6.752 0 13.562 2.014t12.021 5.33l-3.553 6.987q-5.093-3.198-11.133-4.915zm116.297-3.673q9.89 5.626 15.693 15.22t5.804 21.082-5.804 21.2-15.693 15.398-21.734 5.685-21.733-5.685-15.694-15.397-5.803-21.2 5.803-21.083 15.694-15.22 21.733-5.625 21.734 5.625zm-39.144 6.337q-8.054 4.62-12.792 12.555t-4.738 17.41 4.738 17.53 12.792 12.732 17.529 4.678q9.356 0 17.351-4.678t12.732-12.733 4.738-17.529-4.738-17.41-12.732-12.555-17.351-4.62q-9.476 0-17.53 4.62zm100.84-11.252h8.171v75.446h36.48v7.344h-44.652v-82.79zm96.16 69.05q6.93 7.107 19.247 7.107t19.187-7.106 6.87-19.898v-49.271h8.172v49.27q0 16.108-9.06 25.228t-25.17 9.12-25.227-9.12-9.12-25.227v-49.271h8.173v49.27q0 12.792 6.928 19.899zm88.108-69.168h62.891v7.461h-27.36v75.447h-8.172v-75.447h-27.36v-7.461zm27.715 90.132h7.58l-6.04 18.477h-5.923zm71.703-90.014h8.172v82.79h-8.172v-82.79zm56.425 0h8.172v82.79h-8.172v-82.79zm146.012 8.587q-6.04-1.717-11.37-1.717-8.528 0-13.68 3.375t-5.152 9.18q0 5.092 2.843 8.29t6.988 5.034 11.37 4.086q8.409 2.487 13.561 4.915t8.765 7.047 3.612 12.2q0 6.632-3.73 11.725T1490 625.34t-15.515 2.784q-8.646 0-16.878-3.435t-14.154-9.12l3.79-6.75q5.567 5.447 12.91 8.527t14.45 3.08q9.475 0 15.042-3.85t5.567-10.364q0-5.21-2.843-8.527t-6.988-5.093-11.607-4.146q-8.41-2.605-13.502-4.915t-8.646-6.87-3.553-11.902q0-6.278 3.553-11.015t9.949-7.284 14.805-2.547q6.75 0 13.561 2.014t12.022 5.33l-3.554 6.987q-5.092-3.198-11.133-4.915zm116.296-3.672q9.89 5.626 15.693 15.22t5.804 21.082-5.804 21.2-15.693 15.398-21.734 5.685-21.733-5.685-15.694-15.397-5.803-21.2 5.803-21.083 15.694-15.22 21.733-5.625 21.734 5.625zm-39.144 6.337q-8.054 4.62-12.792 12.555t-4.737 17.41 4.737 17.53 12.792 12.732 17.529 4.678q9.357 0 17.351-4.678t12.733-12.733 4.737-17.529-4.737-17.41-12.733-12.555-17.351-4.62q-9.475 0-17.53 4.62zm100.84-11.252h8.172v75.446h36.48v7.344h-44.653v-82.79zm82.955 0h8.172v82.79h-8.172v-82.79zm111.321 5.448q9.771 5.449 15.397 14.983t5.626 21.023-5.626 20.964-15.456 14.923-21.793 5.449h-33.045v-82.79h33.282q11.844 0 21.615 5.448zm-4.205 65.498q7.817-4.501 12.377-12.259t4.56-17.233-4.619-17.292-12.495-12.318-17.352-4.5h-24.99v68.102h25.346q9.356 0 17.173-4.5zm65.427-70.946h55.43v7.343h-47.258v29.61h42.283v7.344h-42.283v31.15h48.797v7.343h-56.97v-82.79z"/></g></svg>