<svg xmlns="http://www.w3.org/2000/svg" viewBox="0 0 5000 3356.6"><path d="M4992.2 2929.3c-15.997-.036-20.403-1.181-19.633 13.324.554 10.428-.685 11.235-17.717 11.536-11.468.203-11.795-.354-11.832-20.157-.022-11.863-.268-12.653-4.423-14.233-7.969-3.03-8.938-9.031-10.17-62.986-1.388-60.749-11.527-399.79-15.644-460.98-8.222-.529-23.308-2.473-23.308 6.335 0 3.836-.418 4.685-12.249 54.319-1.641 6.884-1.666 13.258-.112 28.589 2.402 23.698 2.654 86.208.377 93.645-.893 2.916-2.733 9.187-4.089 13.935-5.594 19.585-8.079 12.791-8.32-22.75-.1-14.663-25.712-1262.7-25.712-2569.6h-19.483c.905 233.51 4.947 1420.6 16.17 1957 3.821 182.62 5.971 573.66 11.311 615.94 1.268 10.044-1.738 11.111-5.557 1.971-8.547-20.455-12.561-59.629-12.721-124.12-.061-24.663-1.116-28.61-19.945-96.685h-20.211c.164 29.948.315 164 2.883 168.15.476.77.967 26.377 1.093 56.905.327 79.968 2.68 32.449 3.196 106.78.458 65.844 1.523 38.351 3.748 108.82 1.218 38.618 1.884 56.933 3.519 79.033-20.852 13.23-19.516 27.047-21.611-131.22-4.924-372.09-21.932-981.58-24.36-2741.7l-8.856-.515c-11.703-.68-10.753-16.904-10.132 173.17.502 153.55 3.516 1302.5 12.076 1716.2.459 22.17 9.804 782.86 13.88 909.87 1.677 52.239 1.325 82.346-.98 83.77-1.23.761-8.521 1.897-16.198 2.524-23.221 1.899-21.025.242-16.247 28.519-2.299 0-14.082.336-14.248-1.295-.073-.712-.433-2.849-.8-4.748s-1.121-36.084-1.675-75.967c-16.27-1171.5-22.016-1321.1-24.154-2832.4h-18.532c4.824 2366.5 22.035 2480.8 24.817 2920.4l-7.458-.434c-18.203-1.059-16.641 7.547-17.004-93.699-.304-84.989-4.753-406.57-7.812-826.96-3.825-526.12-3.324-1788.4-1.094-1999.3-18.224 0-18.716.257-18.748.432-2.383 12.949-3.344 1474.4-1.174 1784.8 6.233 891.7 10.598 928.93 10.749 1138.6l-9.496 1.093c-.318-115.29 1.445 213.49-14.664-1123.3-7.022-582.73-7.632-1285.5-7.782-1801.6h-19.471c3.735 1584.1 4.164 1462.9 22.025 2852.4.447 34.757 1.301 64.468 1.898 66.025 2.269 5.913-4.703 4.638-22.04-4.029-27.847-13.92-17.272 11.255-23.001-258.13-14.809-697.01-13.33-2214.8-13.549-2656.2h-18.235c-7.85 1168.6 16.846 2891 14.782 2893.1-1.148 1.149-9.23-2.77-11.132-3.612-7.126-196.58-21.045-1510.6-21.755-2889.5h-18.292c-.057 106.75-.279 981.09.798 1067.8.001.107 13.606 1774.8 19.241 1803 2.085 10.427-5.164 5.906-18.067-.402-3.487-50.983-10.304-906.8-11.475-998.01-4.162-324.18-3.415-1479.3-3.446-1872.4h-19.429c-5.442 2361.6 24.232 2872.3 10.552 2858.6-1.869-1.869-25.207-1201.7-26.756-2858.6h-20.137c1.948 472.73 4.233 1017.4 9.17 1496.9 7.887 766.01 16.778 1305.2 17.363 1322.8.975 29.401 1.3 28.885-13.658 21.651-14.917-7.213-12.875 32.612-15.818-308.55-9.254-1072.6-8.274-514.78-8.621-2532.8h-17.922c-1.971 187.42-.264 1525.7.513 1590.1.001.12 8.335 1218.5 10.804 1228.8 2.486 10.358-12.822.981-22.746-4.144-8.592-299.74-4.127-289.06-8.305-361.58l-21.002 1.014c-4.446 18.195-10.939 44.889-11.249 44.889-4.67 0 .92 107.77-4.197 132.55-7.292 35.304-9.174 28.644-9.399-33.274-.368-100.46-1.422-54.214-3.031-395.37-2.914-617.45-3.943-1847.1 1.301-2203h-18.878c-5.012 129.43-3.286 2530.9 2.255 2633.4 1.015 18.782-1.794 20.215-8.462 4.316-10.25-24.439-11.66-34.213-13.259-91.937-1.762-63.573-.966-56.561-10.69-94.095-5.877-22.684-8.079-34.796-8.836-48.6-1.086-19.832-.83-20.461 8.375-20.461 2.877 0 4.203-1.202 4.806-4.358.901-4.714-.269-5.944-8.178-8.591-8.211-2.748-7.446-8.899-8.654-104.42 2-.697 9.496-2.893 9.496-4.982 0-4.008-2.337-7.137-5.331-7.137-8.4 0-8.985-140.87-9.323-2253.1h-17.46c-2.934 976.47-.728 1600.2 3.128 2191.2l-9.86-1.128v-34.53c-13.66-1.561-13.396-5.958-13.167 47.16.177 41.139-.056 44.948-2.815 46.04-5.917 2.342-56.59 16.881-59.554 17.087-3.44.24-4.286-10.172-5.142-63.313-.454-28.156-.576-29.021-4.227-29.938-10.427-2.619-11.989 13.508-7.503 77.448 1.811 25.803-.528 24.367-12.909 22.92-.605-20.797-2.602-87.854-2.914-106.59-.278-16.664-1.689-18.633-10.863-15.145-3.893 1.48-4.512 2.489-3.474 5.655 1.814 5.532 2.027 74.858 4.313 102.26 1.369 16.414 1.221 19.226-1.089 20.718-6.44 4.159-7.515 5.408-7.953 9.252-.451 3.952 1.471 5.899 7.736 7.835 3.895 1.203 2.891 8.648 3.789 61.879.076 4.441-.878 6.055-4.652 7.864-7.296 3.497-6.05 10.724 2.402 13.938l4.491 1.707c2.4 86.406 2.525 89.334 4.307 145.01l-4.953.566c-6.266.716-8.856 13.515-2.735 13.515 7.798 0 8.513 3.59 9.48 47.65 1.034 47.069 1.158 46.478-9.455 44.887-18.831-2.824-24.911-21.357-12.788-38.981 11.939-17.357 13.66-33.86 3.938-37.765-9.572-3.845-10.657-4.837-10.744-9.819-.047-2.682-1.018-5.187-2.158-5.567-2.966-.989-2.566-8.478.517-9.661 2.77-1.063 3.587-8.914 1.088-10.459-.826-.51-2.054-8.714-2.728-18.23-2.472-34.866-14.23-10.396-12.021-10.396.624 0 .122 1.22-1.116 2.712-2.392 2.881-2.746 33.923-.56 49.083 1.628 11.294 1.113 27.626 2.646 27.625 3.48-.003 3.799 51.44 6.708 57.838 8.885 19.531 8.339 28.864 8.83 42.643-14.274-7.448-226.51-117.69-228.49-121.5-3.446-6.619-4.32-209.42-.916-212.49 6.589-5.948-9.228-17.511-22.531-16.472l-6.366.497-.073-75.967c24.125.612 46.481 2.835 87.189 6.876 25.263 2.508 26.602 2.256 25.201-4.75-1.319-6.595-1.029-85.277-1.029-99.893l-11.222 1.082v93.232c-39.14-1.719-110.76-10.671-112.53-8.906-.494.493-.786 20.328-.651 44.077.279 48.922.911 46.811-14.04 46.865-10.117.036-13.878 2.543-9.177 6.119 3.407 2.591 7.264 42.587 4.431 45.948-1.394 1.655-95.109 6.162-107.59 7.741-6.296.797-8.224.485-8.302-1.342-.056-1.309-.014-10.683.091-20.831.261-25.039-.345-22.602-28.479-21.26l.626 23.74c.761 28.86 3.993 28.033-34.571 8.84-45.098-22.447-78.952-37.768-82.854-41.956-5.083-5.455-8.715-4.739-5.321-6.316 4.156-1.932 7.477-6.317 6.906-9.12-.898-4.409-18.51-2.916-22.246 1.886l-2.792 3.588c-25.824-12.485-278.04-135.36-286.31-138.63-5.377-2.125-19.539-12.096-22.449-12.096-3.381 0-215.86-103.42-216.56-103.76 0-2.22-.43-11.918 1.657-11.918 11.573 0 3.159-49.016-9.308-54.224-7.247-3.028-6.86-.242-6.379-45.913.421-39.993-1.168-38.906-6.606-79.42-7.455-55.55-18.415-80.607-28.851-107.91-22.561-59.016-47.047-81.707-77.239-126.77-6.234-9.305-14.456-20.134-18.271-24.065s-6.936-7.896-6.936-8.812c0-3.12-8.646-8.862-12.026-21.231-3.137-11.475-14.733-25.669-21.455-38.813-4.13-8.075-23.55-28.066-27.265-28.066-2.741 0-23.075-13.812-25.212-13.812-.794 0-3.167-2.331-5.273-5.18s-5.063-5.18-6.571-5.18c-3.78 0-13.634-10.359-16.886-10.359-2.971 0-19.702-16.983-23.432-20.632v-12.653c0-20.432-12.369-41.181-25.833-43.334-5.349-.855-6.971-1.889-6.971-4.445 0-1.832-.699-3.762-1.553-4.291-.854-.528-2.487-4.852-3.628-9.61-1.303-5.431-3.662-9.899-6.339-12.005-7.711-6.066-5.1-12.26 7.204-17.085 24.572-9.636 30.823-21.773 18.078-35.109-3.899-4.08-5.129-6.988-5.129-12.119 0-59.351-42.681-98.054-108.13-98.054-57.108 0-98.127 27.932-110.29 75.103-1.714 6.647-3.771 12.824-4.57 13.726s-1.454 4.518-1.454 8.036c0 5.912-.686 6.785-9.064 11.538-14.832 8.414-25.466 18.77-25.466 24.798 0 13.717 17.9 29.091 33.871 29.091 5.318 0 7.586 1.3 13.868 7.951 6.795 7.194 9.832 14.494 6.029 14.494-2.316 0-14.057 19.964-14.057 23.902 0 3.908 6.003 8.902 10.7 8.902 2.535 0 2.753.719 1.342 4.429-2.377 6.252-2.094 10.453.906 13.453 1.457 1.457 2.59 5.676 2.59 9.647 0 6.361.594 7.341 6.023 9.929 4.614 2.2 6.281 4.245 7.124 8.743.605 3.229 2.162 6.277 3.458 6.775 4.344 1.667-9.698 18.129-9.698 27.961 0 7.871-5.179 14.663-5.179 25.989 0 4.451-1.141 9.6-2.535 11.443-2.26 2.989-2.542.055-2.59-27.083-.072-40.034 1.103-39.064-27.425-22.657-19.906 11.449-18.601 13.481-16.11-25.085 2.933-45.398 3.056-43.543-2.891-43.543h-4.934c-1.834 30.579-2.856 47.955-4.852 78.125-1.252 18.931-.503 19.104 23.863 5.494 21.072-11.77 19.551-14.293 18.496 30.678-1.009 43.007-.035 40.697-17.791 42.198-13.993 1.183-17.886 4.589-9.611 8.409 3.167 1.462 5.617 44.082 2.691 46.806-.426.396-105.97 7.569-111.27 7.562-3.821-.005-3.885-.357-3.885-21.629 0-27.908.759-24.992-30.571-24.992-.938 11.092-2.233 19.434-2.233 70.043 0 53.404 1.456 49.086-16.552 49.086-7.951 0-20.575 1.233-28.053 2.74-26.861 5.412.215 4.041-263.28-85.474-49.537-16.829-38.117-13.341-142.74-49.2-25.709-8.812-143.71-46.777-151.62-51.288-8.251-4.703-14.077-3.532-58.15-18.698-37.3-12.834-43.089-13.116-52.224-2.548-8.447 9.771-6.867 13.99-8.204-78.253 12.135-6.656 21.846-11.229 7.048-26.919-5.985-6.347-8.085-13.551-7.623-26.167.426-11.644-4.034-123.26-4.604-208.64 3.768-1.016 9.67-3.138 12.414-.861 3.005 2.494 2.904-.038-.309-7.727-1.413-3.382-4.665-7.168-7.226-8.412-6.763-3.286-6.869-4.35-8.22-82.629-.679-39.362-1.643-73.29-2.142-75.396-.757-3.199.258-4.295 6.173-6.662 3.894-1.558 7.079-3.965 7.079-5.349 0-3.933-3.34-9.195-5.836-9.195-6.643 0-7.535-4.855-8.799-47.911-1.174-39.982-1.086-41.869 1.955-41.878 15.76-.048 18.99-6.984 4.903-10.531l-7.294-1.837-.895-39.132c-1.066-46.628-3.791-42.454 28.155-43.142l25.839-.556 4.294-6.319c4.796-7.058 5.78-18.363 2.043-23.473-2.045-2.797-4.832-3.003-30.588-2.254-34.311.997-32.77 1.479-32.77-10.243 0-13.241-1.679-11.806-23.308-8.352 0 13.384 1.383 26.287-8.744 17.977-1.958-1.606-2.034-46.488-.085-49.642 2.745-4.442-1.085-7.223-9.917-7.199-17.951.048-17.016-1.544-16.617 28.275.192 14.348.264 27.335.159 28.861-.153 2.235-2.318 2.777-11.136 2.788-17.685.022-33.589 2.417-45.166 6.801-1.708.647-9.369 5.301-19.129 11.619-11.92 7.717-28.448 32.974-32.042 48.962-1.681 7.477-2.685 9.064-5.734 9.064-4.745 0-7.84 3.13-7.84 7.93 0 2.083-1.166 4.233-2.59 4.78-4.812 1.846-2.972 7.399 3.021 9.119l5.611 1.61c.608 104.18 1.372 105.11-4.159 106.86-1.808.574-4.594 4.316-6.192 8.316s-5.677 10.66-9.065 14.799c-7.743 9.462-7.989 16.181-14.906 40.816-24.141 85.972-7.412 288.53-5.381 327.18.794 15.114.503 14.515 6.035 12.421 5.435-2.057 29.584-2.684 35.394-2.926.958 25.17 1.616 25.871-3.155 28.996-6.934 4.543-7.494 19.462-.938 24.979 6.284 5.287 8.097 46.959 1.934 44.426-5.625-2.312-254.51-89.035-324.15-112.25-180-60.01-340.35-106.56-343.23-109.43-.987-.982-3.639-165.62-2.996-186 .034-1.081-2.638-2.473-5.938-3.092-14.207-2.665-23.78-9.604-18.096-13.117 8.178-5.054 159.98-3.794 162.35-6.433 1.183-1.315-1.437-103.11-2.754-107.04-1.722-5.137-16.885-2.627-15.641 2.59 2.714 11.388 4.157 85.837 1.702 87.794-2.567 2.047-56.851 4.07-114.65 4.274-38.085.134-40.284 1.101-46.994 2.098 1.108 15.311 3.814 27.097-15.479 27.116-10.287.01-15.802 2.806-14.549 7.375 5.723 20.857 5.656 20.902-35.458 23.49-42.965 2.705-74.65 5.239-75.532 4.396-2.117-2.027-1.987-43.9.137-44.086 3.369-.295 4.387-.889 8.864-1.265 5.605-.47 3.122-9.635-2.794-10.314-9.427-1.082-8.111-2.972-8.111-183.32 5.324 0 12.086.658 12.086-8.865 0-7.559-2.997-13.579-6.761-13.579-1.867 0-3.953-.904-4.635-2.009-1.815-2.938-2.459-30.795-.711-30.795 3.722 0 19.156 15.078 23.416 22.876 3.571 6.537 4.759 6.047 9.411-3.885 2.224-4.748 4.604-8.633 5.29-8.633 6.483 0-3.475-23.994-3.534-37.426-.047-11.618-9.865-22.264-14.442-40.297-3.701-14.583-7.687-20.737-14.938-23.065-6.75-2.167-9.023-10.649-5.322-19.859 2.331-5.799 3.083-25.544 1.209-31.718-1.211-3.99-.929-4.752 1.767-4.774 11.068-.091 12.086-19.06 1.314-24.489l-4.456-2.246-1.853-202.87h6.058c10.269 0 9.777-10.306-.607-12.707l-4.478-1.035c-2.305-115.74-3.014-127.84 1.161-125.26 6.752 4.173 13.532-7.813 7.712-13.632-2.029-2.029-2.237-3.486-.863-6.053 7.18-13.416.32-33.922-13.378-39.985-3.042-1.347-5.531-3.708-5.531-5.248 0-18.637-19.225-36.624-49.481-46.294-13.143-4.2-27.732-9.445-32.42-11.654-10.352-4.879-10.74-4.895-13.054-.571-4.932 9.215 8.144 16.874 48.339 28.31 17.193 4.892 25.604 12.832 30.999 29.263 3.599 10.963-.27 11.107-7.46.278-10.988-16.549-18.032-23.314-24.277-23.314-9.777 0-13.567 5.47-15.425 22.262-1.031 9.318-1.92 9.89-17.67 11.365-16.275 1.525-19.688.45-19.688-6.205 0-29.217-34.501-13.931-37.257-21.113-1.351-3.52-24.023-18.306-29.858-19.473-13.267-2.653-12.342 11.477 1.168 17.854 14.096 6.654 24.277 16.255 22.456 21.178-3.328 8.996-4.84 9.023-11.495.204-10.296-13.643-19.829-23.486-20.576-21.245-.381 1.144-2.129 2.079-3.885 2.079-4.855 0-10.498 9.379-11.912 19.798-1.396 10.287-3.545 13.863-9.283 15.446-7.117 1.964-12.293 12.689-8.622 17.868 4.947 6.978 5.677 8.702 9.557 12.776 1.705 1.791 3.077 5.993 3.15 9.647.163 8.193.659 86.099.735 97.584l-5.685 2.711c-6.952 3.316-6.924 8.663.064 12.002 4.898 2.34 6.987 7.062 6.329 14.304-1.295 14.236.442 157.48 1.883 155.25 1.361-2.105 1.679-1.882 1.7 1.193.014 2.08-.673 4.215-1.528 4.743-2.027 1.253-2.027 30.038 0 31.291 2.532 1.565 1.769 5.936-1.036 5.936-1.424 0-2.59.725-2.59 1.612 0 .886-2.137 1.858-4.748 2.158-6.77.779-7.336 6.856-.94 10.088 7.922 4.003 11.812 8.624 8.947 10.627-1.849 1.292-1.903 1.875-.238 2.551 2.507 1.017 3.127 28.212.643 28.212-1.795 0-2.963 55.249-.287 55.249 2.64 0 2.482 82.359-.159 83.239-1.403.467-1.3 1.714.362 4.375 2.622 4.198-2.122 9.932-9.816 11.863-7.611 1.91-5.209 11.019 2.907 11.019 1.831 0 3.33.777 3.33 1.727s1.165 1.727 2.59 1.727c3.926 0 2.783 10.359.863 10.359-2.469 0-1.737 77.937 0 72.514.862-2.69 1.436 3.816 1.528 17.265.098 14.514-.402 20.733-1.528 18.992-1.174-1.817-1.673.758-1.673 8.633 0 20.545 3.323-2.867 3.373 16.072.017 6.253-.623 9.628-1.7 8.962-2.231-1.378-2.333 3.738.046 5.208 4.769 2.947-2.084 12.921-8.877 12.921-7.727 0-9.465 9.601-2.074 11.456 9.986 2.506 11.864 4.499 12.392 13.147.306 5.01-.222 8.201-1.356 8.201-1.038 0-1.848 3.237-1.831 7.338.019 5.374.474 6.644 1.7 4.748 1.138-1.761 1.683 3.385 1.7 16.072.019 13.52-.515 18.327-1.939 17.447-1.428-.883-1.578.622-.548 5.509 2.247 10.659 1.97 44.368-.385 46.865-3.22 3.415 9.069 6.709-149.9-40.178-121.22-35.754-185.26-53.663-189.93-55.456-2.92-1.12-2.576 5.68-2.576 54.251 19.981 5.351 34.53 8.282 34.53 15.855 0 3.802 8.616 16.986 15.503 29.974 2.354 4.44 4.817 8.072 5.474 8.072s1.694 2.277 2.305 5.06 2.227 5.986 3.59 7.117c1.364 1.132 2.479 2.725 2.479 3.542 0 2.133 11.655 20.41 15.561 28.307 1.409 2.849 3.037 5.568 3.619 6.043 1.74 1.421 6.886 12.086 5.832 12.086-.536 0 .494 1.576 2.288 3.502s5.356 7.559 7.915 12.517c12.663 24.539 120.17 209.18 120.17 211.94 0 .916.777 1.665 1.727 1.665s1.727 1.489 1.727 3.309.636 3.568 1.414 3.885c1.266.515 19.304 30.188 19.304 31.755 0 .352 2.331 4.316 5.18 8.808s5.18 9.504 5.18 11.138.699 3.23 1.553 3.547c2.345.868 43.336 71.632 43.336 73.923 0 .966.777 1.756 1.727 1.756s1.727 1.554 1.727 3.453.601 3.453 1.334 3.453c1.09 0 4.231 5.199 8.612 14.256 1.678 3.469-5.039 2.72-10.827-1.208-3.579-2.428-7.88-4.416-9.558-4.416-7.724 0-24.956-9.805-27.551-15.677-4.776-10.806-17.939-16.402-27.967-11.889-7.18 3.23-51.037-18.335-56.683-27.872-5.647-9.539-18.824-16.739-25.263-13.806-11.421 5.204-18.894-1.347-44.224-11.868-11.334-4.708-13.81-6.479-15.838-11.333-3.044-7.286-15.921-16.911-20.76-15.516-13.948 4.019-18.811 3.286-37.29-5.616-9.898-4.769-19.757-9.191-21.909-9.827-10.128-2.992-14.215-38.017-14.215 10.759v27.406c10.921 5.208 11.447 4.417 10.673 12.533-.783 8.212-2.311 9.725-7.185 7.117-3.423-1.832-3.489-1.415-3.489 22.365 0 21.872.294 24.246 3.021 24.376 6.029.287 10.806 1.022 11.563 1.779 1.572 1.571 2.925 292.47 1.371 294.68-1.881 2.667-6.49 1.126-15.955-1l.009 1487.9h4058.7c-1.844-6.68-3.632-11.029-1.534-18.56 1.26-4.527 1.23-15.983-.098-38.076-3.517-58.47 2.474-29.412-.174-126.38-1.206-44.174-1.382-43.653 14.153-42.029 13.492 1.41 15.104-3.627 3.176-9.923-7.303-3.855-20.426-16.99-20.426-20.445 0-1.73-1.123-4.078-2.495-5.217-3.506-2.909-7.179-18.515-10.505-20.376-3.357-1.879-13.38-35.528-18.177-42.219-4.375-6.102-4.724-5.469 5.883-10.658 11.823-5.785 15.961-5.818 17.386-.14 1.613 6.427 10.898 26.208 12.876 27.43 3.088 1.908 3.532-1.76.834-6.899-5.62-10.707-11.306-26.755-10.357-29.229 1.141-2.973 53.833-3.904 59.395-1.05 3.294 1.691 21.407 7.094 23.782 7.094 4.496 0-11.532-7.362-16.755-7.696-2.331-.149-.715-2.64-10.791-2.716-10.635-.079-3.382-3.545 9.042-4.321 5.393-.337 12.913-1.069 16.711-1.628 8.59-1.263 11.944 3.298 20.028 27.233 2.931 8.677 7.282 19.631 9.669 24.343 5.748 11.343 4.766 20.639-2.839 26.892-7.361 6.052-6.965 11.185 1.185 15.366 6.421 3.294 6.463 3.384 6.545 14.285.046 6.033.743 34.861 1.548 64.06 1.355 49.159 1.249 53.09-1.438 53.09-6.033 0-13.308 11.76-12.125 19.604.47 3.113 4.873 7.042 11.943 10.656 5.625 2.875 5.61 65.012 6.057 97.502h12.588c-1.934-84.696-2.51-94.959.412-96.08 6.652-2.553 7.246 1.209 7.573 48.059.354 50.686-.104 48.021 8.245 48.021h6.168c-1.577-85.181-2.217-84.604 2.012-84.573 5.604.042 7.646 2.18 7.417 7.763-.269 6.551.356 64.223.478 76.81h744.13c0-36.824-8.63-198.52-8.63-217.95 0-1.675.913-3.046 2.029-3.046 3.896 0 27.275 12.491 26.309 14.055-1.21 1.957 1.134 43.957 6.795 206.94h13.204v-445.68c-8.636 1.23-7.77-.68-7.77 18.373zm-874.49-353.93c.329-19.715 8.442-25.455 13.422-9.496 2.92 9.355 2.757 10.979-2.043 20.453-8.437 16.651-11.785 13.428-11.379-10.957zm-3859.1-943.89c-3.621 3.621-8.287 2.195-8.287-2.532 0-1.407 2.014-2.302 5.18-2.302 5.516-.001 6.465 1.475 3.107 4.834zm.345 12.219c0 3.345-4.659 5.509-6.662 3.095-4.648-5.599 6.662-5.385 6.662-3.095zm-5.611-59.148c6.363 1.521 7.578 2.324 6.401 4.23-2.071 3.352-11.149 1.002-11.149-2.886 0-1.828 1.246-2.181 4.748-1.344zm-8.141 54.97c-2.945 3.549-4.049 3.336-18.68-3.599-18.562-8.799-14.827-12.213 6.066-5.545 13.95 4.452 15.547 5.61 12.614 9.144zm-10.276-62.945c6.512 0 .633 7.107-2.41 4.064-2.251-2.251-1.176-4.064 2.41-4.064zm-9.207 40.141c3.698-1.233 13.388 2.445 13.935 5.289.309 1.602-.467 2.899-1.724 2.883-3.321-.042-14.386-7.447-12.211-8.172zm-2.846-47.047c1.011 0 1.515.971 1.12 2.158-1.045 3.14-4.992 3.334-9.928.487-7.474-4.31-31.077-14.268-31.077-16.765-.001-6.017 35.745 14.12 39.885 14.12zm-25.741 30.214c5.842 2.374 11.711 4.316 13.041 4.316 1.368 0 2.168 1.304 1.841 3.002-.911 4.731-4.848 4.227-17.372-2.225-17.673-9.104-15.967-12.592 2.49-5.093zm7.574 20.793c-5.697 2.955-5.246 2.978-13.509-.672-12.395-5.474-6.901-11.667 5.823-6.563 12.407 4.975 13.924 3.998 7.686 7.235zm-28.258-27.466c-3.667 2.29-11.338-.135-10.289-3.252.74-2.199 9.672-2.058 12.037.19.688.654-.098 2.032-1.748 3.062zm.43 16.01c-3.972 3.819-11.672 1.563-10.779-3.157.944-4.989 19.116-4.859 10.779 3.157zm.035-58.49c-1.468 2.374-6.091 1.96-11.622-1.04-5.048-2.739-6.321-5.918-2.369-5.918 4.43 0 15.032 5.273 13.991 6.958zm-16.291 49.869c-2.452 4.581-3.594 4.45-18.208-2.089-23.792-10.645-17.55-14.917 8.633-5.907 12.703 4.371 11.882 3.685 9.575 7.996zm2.511-68.913c3.424 0 3.426 3.453 0 3.453-3.424 0-3.426-3.453 0-3.453zm-19.307 4.21c1.725-.669 3.83-.523 4.676.323 3.087 3.087-.828 6.034-4.462 3.359-3.196-2.352-3.206-2.522-.214-3.682zm-1.76 38.499c4.41 3.311 17.196 4.633 16.368 8.934-.929 4.825-20.811-.539-24.576-6.631-1.379-2.23 5.67-4.208 8.208-2.303zm-41.136-56.443c1.998-3.233 16.106 5.227 29.393 10.279 1.284.488 4.322 2.066 4.322 3.412 0 6.41-23.951-8.355-31.618-10.956-1.722-.584-2.665-1.815-2.097-2.735zm-6.322 37.145c6.325-2.007 20.915 6.878 30.344 10.084 3.134 1.066 3.14 1.235.164 4.524-3.707 4.096-2.056 4.312-18.957-2.477-13.853-5.565-18.12-10.046-11.551-12.131zm-14.17-60.531c3.168 2.398 3.151 2.481-.507 2.534-7.832.114-6.097-7.534.507-2.534zm-7.575 48.889c1.124 1.124 4.218 2.043 6.877 2.043 4.006 0 4.834.74 4.834 4.316 0 2.374.194 4.899.432 5.611 2.181 6.543-9.544 1.061-13.267-6.203-3.073-5.998-2.426-9.318 1.124-5.767zm12.282 25.494c-.951 2.48-3.129 2.883-7.044 1.303-2.962-1.195-2.732-5.762.29-5.762 4.636 0 7.691 2.017 6.754 4.459zm-16.645-7.167c-.899 2.697-3.449 2.657-10.255-.161-6.037-2.499-8.711-5.764-4.721-5.764 4.229 0 15.469 4.447 14.976 5.925zm-16.614-19.737c6.282 0 12.484 2.954 11.055 5.266-1.256 2.032-5.389 1.902-11.6-.367-6.321-2.308-6.033-4.899.545-4.899zm-11.336-10.359c1.408-2.277 6.043-2.263 6.043 0 0 2.305-7.446 2.27-6.043 0zm-18.643-12.086c11.669 0 18.424 9.468 11.614 16.278-1.492 1.492-3.24 2.678-3.885 2.635-12.847-.853-20.227-18.913-7.729-18.913zm55.498 364.73c-2.508 4.783-4.495 3.6-47.215-8.236-.659-26.764-4.736-201.19-7.498-227.86-2.105-20.331-.381-59.208 2.765-62.354 3.51-3.51 4.523-2.519 43.767 14.012-.9 28.924-1.397 33.824 1.539 33.262 1.955-.374 2.713-3.514 3.093-12.809.577-14.105.094-12.253 10.746-13.817-2.753 49.701-4.875 273.38-7.197 277.81zm30.213 10.354c-2.157 3.488-18.361-1.974-22.182-3.124l-.468-35.032c-1.116-83.64 4.264 52.042 3.403-191.9-.075-21.18.442-33.313 1.287-30.214 1.106 4.057 1.456 2.466 1.617-7.338.259-15.884.579-14.536 21.243-8.201-3.218 157.64-3.753 273.95-4.9 275.81zm-6.209-314.35c-17.057-7.794-9.209-11.774 8.577-4.35 3.056 1.276 7.135 2.319 9.064 2.319 4.442 0 4.534 2.783.169 5.119-4.571 2.446-6.389 2.131-17.81-3.088zm87.582 339.88c-.566.916-1.178 1.568-1.359 1.449-.181-.118-4.991-1.673-10.689-3.453-17.868-5.584-21.409-7.593-39.71-11.84-15.947-3.701-18.41-4.946-21.825-6.238.922-280.84.818-262.44.604-273.23l8.021.444c11.633.645 28.38 11.382 33.259 11.382 5.055 0 5.412 11.688.699 22.876-.979 2.324-.434 3.021 2.365 3.021 3.644 0 3.81-.462 4.314-12.086.207-4.783 8.36-7.193 12.005-3.549 2.029 2.029 13.433 226.15 11.616 228.3-.544.645-4.821.448-9.504-.438-12.16-2.299-24.117 12.496-14.769 18.273.963.595 3.306 4.13 5.207 7.856 2.48 4.861 5.903 8.014 12.125 11.167 4.768 2.416 8.206 5.142 7.64 6.058l.001.001zm.9-5.321c-3.446-.322-17.265-9.08-17.265-10.942 0-1.278-1.554-4.299-3.453-6.714-8.482-10.783-2.611-19.237 11.998-17.277 8.61 1.155 8.385.661 9.056 19.907.29 8.309.139 15.071-.336 15.026zm-.104-174.3c-.581 5.223-1.182-9.966-1.338-33.753-.189-29.101-.91-43.878-2.203-45.171-2.821-2.821-.281-5.675 5.051-5.675h4.653c-.099 30.902-.749 125.11.942 151.93 1.067 16.924 2.023 41.056 2.023 42.731.489 15.625.124 21.15-1.402 21.15-2.213 0-3.055-15.06-5.404-96.685-.77-26.8-1.679-40.31-2.322-34.53zm8.736 146.75c2.284 0 2.281 5.18 0 5.18-2.284 0-2.281-5.18 0-5.18zm-1.467 15.625c.742-2.226 3.11-2.625 3.324-.561.167 1.62-4.254 3.351-3.324.561zm3.194 18.906c-2.281 0-2.28-12.086 0-12.086 2.281 0 2.28 12.086 0 12.086zm7.762-10.372c-1.93-3.123 8.511-5.366 5.258-.103v.001c-1.434 2.319-3.859 2.367-5.258.102zm6.515 11.667c-1.38 3.956-5.645 2.326-5.645-2.158 0-7.673 7.786-3.977 5.645 2.158zm5.853 1.859c-2.307.444-3.01-.259-2.566-2.566.728-3.778 5.744-4.313 5.744-.612 0 1.412-1.43 2.842-3.178 3.178zm30.866-74.618c-6.873-7.503-10.36-7.845-13.722-1.342-1.39 2.688-8.208 10.848-15.151 18.132-14.795 15.523-15.027 15.616-13.478 5.406.654-4.307.499-8.257-.344-8.778s-1.062-2.429-.487-4.239c.575-1.811.508-4.161-.148-5.223-1.553-2.512-5.936-110.66-5.936-184.14 13.163-5.452 12.037-5.926 42.742 8.057l1.237 14.849c1.429 17.158 6.689 21.538 7.219 6.011.256-7.498.22-7.555-1.068-1.712-1.254 5.688-1.346 5.511-1.56-3.021-.216-8.595-.003-9.064 4.121-9.064 4.126 0 4.336.464 4.103 9.064-.135 4.985.358 42.936 1.094 84.335 1.479 83.162 1.528 82.752-8.622 71.67zm54.18-196.15c-4.208 0-3.613-4.034.719-4.875 3.775-.732 4.186 4.875-.719 4.875zm-11.734-50.069c4.543 0 13.605 4.256 13.605 6.39 0 2.713-.998 2.659-8.069-.439-5.889-2.58-9.025-5.951-5.536-5.951zm-25.026-12.086c2.564 0 21.366 9.234 21.366 10.493 0 6.405-14.948-4.959-20.287-5.212-2.124-.1-3.182-5.281-1.079-5.281zm15.433 46.528c5.585 2.897 11.534 5.268 13.222 5.268 3.939 0 3.906 2.161-.088 5.775-4.101 3.712-4.149 3.7-19.132-4.671-19.117-10.68-13.601-16.541 5.998-6.372zm-18.981 11.978c1.335-2.16 8.95-.059 17.351 4.789 3.971 2.291 8.356 3.627 9.927 3.024.648-.249 2.815-.756 2.815.62 0 4.542-4.507 5.211-12.092 1.794-17.062-7.687-18.919-8.742-18.001-10.227zm-.978 39.521c14.202 2.664 21.716 3.696 19.883 9.479-4.146 13.083-9.906 81.75-15.24 88.885-5.237 7.007-4.643-6.06-4.643-98.364zm21.141 256.3c-19.906-5.043-23.455-8.388-7.084-6.677 12.541 1.311 25.02 1.109 32.605 1.109-.904 11.87 1.903 12.515-25.521 5.568zm25.062-11.18c-1.862 2.302-39.405 3.211-41.608 1.007-3.069-3.068-.188-7.905 10.071-16.912 13.33-11.703 13.313-11.584 3.579-25.509-4.204-6.014-8.165-13.011-8.802-15.551-.637-2.539-2.248-5.521-3.579-6.626-2.833-2.351-3.233-19.382-.706-30.074.897-3.798 2.115-12.345 2.705-18.992 1.598-17.998 5.929-42.134 5.929-51.262.006-3.505.671-6.781 1.479-7.28.807-.499 1.963-6.566 2.568-13.482 1.444-16.518 1.418-11.921 4.733-35.451 3.149-22.35 5.477-16.211 4.341-11.683-1.054 4.199-.915 4.265 6.762 3.212 11.803-1.618 18.146 4.061 32.354 8.676 3.163 1.027 4.291 7.996 1.295 7.996-.95 0-1.727 3.135-1.727 6.967 0 11.643-7.52 14.691-3.623 17.099 1.684 1.041.58 18.575-5.127 81.431-8.541 94.079-8.485 103.77-10.644 106.43zm21.123-53.212c7.598 1.928 8.373 2.571 9.183 7.618 1.35 8.414 1.525 44.835.232 48.205h.001c-.633 1.65-2.039 2.883-3.125 2.741-20.436-2.679-19.424-.117-18.803-16.509.747-19.742 3.451-16.888 4.204-46.519.293-11.543 1.117-20.626 1.831-20.185s1.374-3.323 1.469-8.364c.256-13.648 1.216-11.307 2.692-36.359.545-9.258 1.678-16.834 2.517-16.834s1.534-9.517 1.552-21.15c.017-14.009.866-23.482 2.514-28.056 2.247-6.236 2.495-.594 2.564 58.154.084 71.97.943 66.188-10.065 67.798-5.814.852-3.449 7.765 3.234 9.46zm2.436-213.32c-1.394 3.633-1.778 3.571-11.565-1.875-6.6-3.673-7.718-4.908-5.545-6.124 5.858-3.278 19.068 2.897 17.11 7.999zm-13.769-52.259c-1.205 1.95-5.931 2.035-5.931.107 0-5.037 7.434-2.538 5.931-.107zm20.01 339.86c-2.207 4.123-4.83 4.201-16.016.48-9.323-3.101-8.201-3.114-8.201-14.358 18.37.744 31.882-.444 24.217 13.878zm3.41-491.97c2.389 0 2.252 46.087 0 47.479-2.346 1.45-2.219 8.277 0 6.906 2.384-1.474 2.051 35.85 0 31.077-1.966-4.575-2.5 44.026.124 44.026 1.017 0 .629 1.221-.863 2.713s-2.713 3.418-2.713 4.279c0 11.398-19.303-.949-28.478-18.214-16.534-31.115-36.664-61.198-68.191-119.13-8.711-16.006-10.375-14.917-10.375-16.894 0-.47-150.25-261.33-181.81-318.91-2.863-5.223-6.634-11.349-8.381-13.614-9.542-12.37-9.371-12.347 61.568 8.312 201.46 58.67 248.46 71.143 239.36 74.65-2.161.833-3.28 31.15-5.178 32.476-9.937 6.947-9.721 6.593-6.322 10.349 8.805 9.731 9.541-8.99 9.541 31.127 0 17.265.647 27.624 1.727 27.624 2.327 0 2.328 41.436 0 41.436-.949 0-1.717 1.359-1.7 3.021.022 2.582.27 2.645 1.7.432 2.506-3.879 2.178 27.624 0 27.624-1.056 0-1.626 6.877-1.467 17.697.201 13.673.534 15.93 1.467 9.927 1.148-7.385 1.221-7.193 1.467 3.885.151 6.791-.461 11.654-1.467 11.654-.95 0-1.736 2.525-1.753 5.611-.033 7.089-1.433 9.255-7.461 11.547-7.427 2.824-5.999 10.996 2.129 12.193 6.197.912 11.524 6.677 7.516 8.135-2.55.93-2.95 12.586-.433 12.586zm69.256-465.84c2.164 4.104 1.923 5.951-1.18 9.055-3.513 3.513.355 3.346-55.125-3.33-.024-4.541-1.321-168.35.415-168.3 2.717.07 32.208 11.935 42.748 13.262 10.281 1.295 9.887-1.451 10.778 75.068.457 39.236 1.521 72.648 2.364 74.247zm-7.842 452.22c.653 1.056.116 2.598-1.193 3.427-3.552 2.25-6.696 1.869-6.696-.811 0-1.614-2.342-2.42-7.338-2.526-9.108-.192-27.634-5.923-28.61-8.85-.666-1.997 49.086-1.068 51.3.958 1.27 1.162-3.682 5.883-6.171 5.883-1.379-.001-1.952.851-1.292 1.919zm7.146-19.617c-1.963 2.573-11.292 2.136-56.504.291l.895-173.05c24.552-9.261 29.391-11.57 36.013-7.231 5.214 3.416 15.045 5.625 20.962 7.135.036 22.393.79 170.03-1.366 172.86zm-21.139-206.11c-7.519 15.841-10.159 16.543-13.082 3.479-3.501-15.643-6.411-14.48-22.25-14.48 0-2.562-.339-15.135 1.295-16.097 2.205-1.297 41.026 10.343 40.647 12.188-.198.957-3.172 7.667-6.61 14.91zm17.237-199.19c-1.24 0-3.281.985-4.536 2.188-2.423 2.324-9.284.716-34.113-7.996-15.314-5.373-15.205-7.611.295-6.031 34.014 3.468 43.006 4.603 43.95 5.548 1.442 1.443-2.87 6.291-5.596 6.291zm.683-185.92c-2.103 3.758-4.422 3.668-12.57-.486-3.665-1.869-7.251-3.034-7.97-2.59-1.669 1.031-25.741-7.068-28.142-9.469-2.349-2.349-.142-2.335 25.92.167 22.417 2.153 27.069 4.682 22.762 12.378zm-3.615-342.39c.919 0 1.307 93.874.48 116.11-.053 1.437.206 1.444-27.672-.771-10.92-.868-20.444-2.163-21.164-2.877-1.732-1.719-.451-196.13-.418-203.75l10.454 4.642c16 7.105 16.991 10.201 26.608 11.739 10.004 1.6 10.418 3.232 10.418 41.132-.001 18.579.582 33.78 1.294 33.779zm-.432 138.53c-3.013 2.214-45.753-11.238-45.753-14.4 0-2.062 43.409.049 45.753 2.225 2.337 2.17 2.17 10.582 0 12.175zm-2.115-229.59c-1.025 9.094-4.106 10.473-12.56 5.622-5.12-2.938-21.75-10.28-27.037-11.936-2.051-.642-4.699-2.336-5.883-3.764-4.267-5.141.515-6.188 22.406-4.908 23.938 1.4 24.56 1.804 23.074 14.986zm-9.846-147.2c5.379 0 7.645 5.406 7.645 18.241 0 11.603-1.992 11.913-15.539 2.416-5.223-3.662-10.346-6.7-11.386-6.751-2.655-.131-8.132-6.486-6.423-7.453 4.5-2.546 16.881-1.076 4.613-12.997-5.368-5.216-5.136-7.268.821-7.268 9.087 0 12.121 13.812 20.269 13.812zm-32.915-32.233c2.436-.811 11.504 7.915 10.282 9.893-1.591 2.574-11.161 1.895-12.221-.867-1.281-3.337-.213-8.31 1.939-9.026zm16.288 58.044c13.065 9.35 19.733 10.515 25.998 12.311.048 6.004.58 76.367.74 81.439.186 5.872-13.035 4.617-46.493 2.158-1.231-116.8-4.957-113.59 19.755-95.908zm-19.772 345.39c1.52 0 24.145 9.141 25.916 10.471 2.54 1.907 21.759 4.287 23.429 6.99 1.575 2.548 4.069 168.14 2.57 170.57-1.476 2.389-12.29 1.385-31.178.675-15.175-.57-17.554-1.379-21.581-2.305-.001-131.17.114-186.4.844-186.4zm-.031 393.98c1.01-1.009 32.057 10.023 36.257 12.884 1.873 1.276 6.146 2.332 9.496 2.346 11.568.05 11.08-2.604 10.846 58.978-.117 30.695-.264 56.391-.326 57.103-.118 1.343-9.348 1.844-10.616.576-1.032-1.031-43.349-12.821-45.266-14.686-1.386-1.349-1.768-115.82-.391-117.2zm21.487 614.95c10.284 4.391 19.574 7.983 20.642 7.983 1.069 0 1.943 1.165 1.943 2.59 0 7.931-24.091-5.44-39.71-12.56-17.468-7.963-1.97-6.165 17.125 1.987zm33.126 56.281c-1.092 18.956.099 22.106-14.426 14.523-8.411-4.391-9.515-6.811-7.144-15.654 2.212-8.245 9.217-4.164 21.57 1.131zm-49.019 170.54c-1.445 1.885-4.439 2.959-4.816 1.726-2.254-7.366-2.418-10.083-1.943-32.228.424-19.743 1.97-19.113 5.048 2.054 3.368 23.168 3.542 26.058 1.711 28.448zm3.414 22.697c.814 12.301 2.25 32.082 2.25 45.5h.009v11.654h-5.078c-7.81 0-6.549 2.764-7.841-56.112l10.66-1.042zm.019-192.48c-9.479-4.933-10.219-6.211-8.412-14.52 1.845-8.484 20.983-6.136 21.031 2.58.011 1.905.501 6.377 1.089 9.938 1.324 8.005-1.406 8.404-13.708 2.002zm-9.837 108.06c2.283 0 2.283 5.18 0 5.18-2.283-.001-2.283-5.18 0-5.18zm4.885 162.71c-9.345-1.254-8.044-16.936 1.497-18.05 3.383-.395 6.291.101 6.593 1.126.297 1.008.988 3.889 1.536 6.403 1.336 6.133-3.438 11.351-9.626 10.521zm33.523-92.572c18.483-1.259 19.371-.705 11.825 7.373-5.284 5.657-5.872 5.992-7.553 4.31-.579-.579-6.609-1.662-13.4-2.408-23.701-2.601-19.021-7.357 9.128-9.275zm12.701 101.22c-2.622 3.455-2.017 3.464-15.725-.23-13.729-3.699-14.675-4.48-14.675-12.101 0-9.266.628-9.326 28.919-2.75 4.527 1.053 5.398 9.921 1.481 15.081zm3.041-21.581c-1.188 4.435-2.742 4.533-17.04 1.072-16.764-4.058-16.939-4.331-18.351-28.72-.674-11.619-1.78-23.761-2.459-26.982-.906-4.296-.693-5.521.799-4.599 1.119.691 3.177.308 4.574-.851 1.963-1.629 4.759-1.663 12.298-.149 11.257 2.261 16.355 1.96 21.267 1.96-.006 7.563.235 53.337-1.088 58.269zm2.022-146.34c-1.349 63.843.405 58.698-19.35 58.698-7.756.014-15.137.407-16.402.871-4.87 1.79-7.156-2.165-7.628-13.201-.363-8.478-7.16-109.22-8.818-117.51-1.122-5.611 7.268-7.115 12.197-2.186 1.437 1.437 5.005 3.091 7.929 3.676 5.812 1.162 8.018 3.219 5.272 4.916-2.849 1.761-2.257 26.778.634 26.778 3.287 0 4.492-5.744 3.308-15.75-1.611-13.6 7.163-9.134 24.044-2.378l-1.186 56.09zm-.382-314.2c2.567 0 2.953 114.02.416 123.01-1.796 6.367-3.857 5.98-6.896-1.295-3.449-8.255-4.137-6.917-13.004-.706 2.262 3.583 8.546 13.871 11.536 16.861 1.33 1.331 1.986 3.548 1.456 4.927s-.963 2.833-.963 3.23c0 1.902-6.891.113-14.675-3.809-10.084-5.081-24.102-10.573-32.804-14.074-.14-26.066-1.37-166.32.674-168.36 1.539-1.539 19.878 2.833 23.497 5.601.95.726 4.377 1.824 7.615 2.439 3.239.615 6.913 2.581 8.165 4.368 2.056 2.936 2.903 3.034 8.782 1.013 9.315-3.202 13.488 7.902 6.46 17.193-3.151 4.166-3.298 9.597-.259 9.597zm4.669-1237.9c5.462 0 9.992-2.983 12.814-8.44 6-11.603 47.509-6.418 43.245 5.403-1.501 4.16-2.045 27.33-.662 28.184 4.524 2.796-1.526 5.542-14.52 6.588-7.783.627-18.859 1.604-24.614 2.172-11.623 1.146-16.818-1.644-16.128-8.66.918-9.313-7.344-25.247-.135-25.247zm-.032 85.306c0-30.831.516-40.722 2.158-41.348 3.03-1.155 48.293-3.994 50.453-3.165 2.035.781 2.525 57.317.523 60.398-.687 1.054-.686 2.48 0 3.169 1.724 1.73 1.43 11.3 2.567 18.222.427 2.602-.379 5.151-2.031 6.419h.003c-1.507 1.157-3.906 1.981-5.33 1.831s-11.913-.708-23.308-1.24c-27.554-1.286-25.035 3.17-25.035-44.286zm1.097 52.949c1.908-1.654 50.695-.17 50.695 1.543.001 3.118-60.268 6.757-50.695-1.543zm40.527 12.681c10.368-1.364 16.35 3.042 12.373 9.112-2.528 3.859-3.7 4.239-9.111 2.956-3.31-.785-35.978-1.422-42.3-1.575l-1.093-9.496c9.311 0 30.932.213 40.131-.997zm11.17 156.81c1.401 1.401 1.454 50.519.057 52.78h.001c-1.244 2.013-6.059 2.124-32.927.754-17.429-.888-16.176 3.665-16.657-60.546-.9-120.13-.788-130.69 1.374-130.28 2.842.55 44.629 1.892 48.046 2.09 1.991.116 2.22 72.427.24 75.631-.655 1.059-.568 2.311.194 2.782 1.665 1.028 1.544 41.976-.128 43.648-.644.643-.346 2.163.661 3.377 1.269 1.53 1.283 3.23.045 5.543-.982 1.835-1.39 3.733-.906 4.216zm-49.346 1255.6c-2.29 1.415-2.299-4.316 0-4.316 2.236 0 2.299 2.896 0 4.316zm.341-18.992c.087-6.962 1.943.218.796 3.054-.473 1.17-.831-.205-.796-3.054zm2.985-18.909c-1.292.798-1.488-1.411-.642-7.236 1.6-11.019 2.502-11.692 2.502-1.869 0 4.376-.837 8.473-1.86 9.105zm1.86-19.937c-2.259 0-2.279-4.634 0-6.043 2.265-1.4 2.307 6.043 0 6.043zm14.106-112.76c-4.856-7.338-5.662-6.262-12.505-4.545l.981-173.61c5.784-.169 33.625-1.235 37.983-.149 3.275.817 5.037 175.16 1.855 183.45-2.208 5.755-23.684 1.852-28.314-5.145zm23.565 29.316c-.623 3.211-2.546 3.984-7.033 2.827-5.266-1.358-3.525-5.705 2.285-5.705 4.025 0 5.171.695 4.748 2.878zm.257 208.68c-2.294 2.764-36.211 3.458-36.211.742 0-2.119 4.006-3.047 18.693-4.328 16.084-1.403 20.85-.428 17.518 3.586zm-.462 69.246c-2.393 2.26-32.615 4.909-34.5 3.025-1.648-1.648-1.25-58.003-1.25-60.7l4.327-.827c7.153-1.368 30.388-.081 32.255 1.786 2.578 2.577 1.821 54.212-.832 56.716zm-35.317-80.949c2.225-6.675 59.966-5.82 18.06.215-17.012 2.45-18.94 2.427-18.06-.215zm34.101-13.788c-5.004.488-22.322 2.083-27.708 3.125-11.661 2.257-6.66-19.62-.651-86.027 1.661-18.359 2.499-16.208 30.948-3.885-2.019 31.918-2.165 32.098-2.589 86.787zm-27.409-147.41c-.266 2.955-5.995 10.239-7.147 9.087-2.967-2.963.56-18.559 4.083-18.057 3.503.499 3.759 1.248 3.064 8.97zm-2.503-47.878c2.054-2.054 5.74-1.186 5.74 1.352 0 1.368-.689 2.914-1.531 3.434-1.901 1.174-5.771-3.225-4.209-4.786zm7.466 62.745c-2.203 0-2.203-8.677 0-12.086 1.225-1.897 1.681-.626 1.7 4.748.015 4.036-.75 7.338-1.7 7.338zm26.622-266.93c-4.858 1.864-20.242.452-30.928-2.839l-6.898-2.125 5.172-1.106c19.206-4.108 46.134.897 32.654 6.07zm-33.122-16.562c.899-2.697 20.083-3.176 20.747-.519.244.976-4.332 1.952-10.532 2.245-8.397.398-10.788-.006-10.215-1.726zm35.043-11.825c-1.688 2.73-38.788 2.406-39.803-.348-1.049-2.845.004-172.19.04-179.99l10.359.49c10.944.517 26.382 3.566 29.454 5.816 2.013 1.475 1.964 170.77-.05 174.03zm-23.36-198.31c0-8.962-.601-10.517 4.291-10.517 8.458 0 20.016 4.061 19.485 6.847-.591 3.104-7.724 2.966-23.776 3.67zm22.444 9.338c0 2.739-1.187 2.869-9.496 1.043-4.297-.944-4.641-1.351-2.017-2.385 5.448-2.149 11.513-1.442 11.513 1.342zm-19.647-1.834c-.535 2.046-2.026 2.246-10.567 1.413-11.039-1.076-9.763-3.094-7.484-12.173 2.847 1.409 18.586 8.712 18.051 10.76zm20.501-69.802c-2.317 3.748-11.988-.543-22.322-4.401 1.017-29.398 2.052-33.438-7.119-31.136-3.92.984-4.218 1.835-4.218 12.037 0 10.025-3.129 17.48-6.093 14.516-1.101-1.1-1.648-115-1.676-118.9 34.833 1.846 41.634 2.381 42.018 2.741 1.064.996.487 123.4-.59 125.14zm-16.325-137.78c8.584.298 14.452 1.219 14.229 2.234-.475 2.169-5.743 2.49-17.213 1.049-14.585-1.832-12.769-3.831 2.984-3.283zm16.26-8.87c-1.512 2.447-37.661 2.029-40.154-.464-4.654-4.654-1.738-5.321 18.092-4.135 20.81 1.243 23.757 1.858 22.062 4.599zm-41.388 958.15c-.043-.101 1.738-19.802 1.747-19.902 22.754-2.656 23.501-2.761 37.12-4.437v23.602c-2.829 1.374-15.089 7.623-17.743 7.473-1.508-.086-20.931-6.28-21.124-6.736zm38.812 6.962c-1.749 3.268-6.854 4.496-9.149 2.201-1.375-1.375 7.776-7.341 9.641-6.285.714.405.493 2.243-.492 4.084zm2.586-255.56c-3.546 3.918-3.266 3.906-11.16.476-7.884-3.426-8.885-5.206-7.59-13.494 1.375-8.802.593-8.434 10.809-5.092 10.327 3.377 13.899 11.525 7.941 18.11zm3.281-874.08c-.472 2.593-1.001 37.568-1.174 77.722-.271 62.783-.679 73.238-2.905 74.646-1.62.81-3.369 1.576-5.18 1.434-6.41-.503-30.437-3.157-32.452-3.585-3.134-.665-3.281-30.907-4.55-159.19 34.987.959 47.763.724 46.261 8.972zm-.349-17.981c-3.291 2.978-7.334 3.158-26.175 1.162-15.313-1.622-18.805-3.017-20.058-8.012-1.517-6.044-1.636-6.017 20.864-4.732 23.217 1.325 32.18 5.417 25.369 11.582zm1.236-184.23c-4.085 4.922.33 158.52-2.384 162.91-1.111 1.797-19.19 1.867-35.387.139l-9.496-1.013c-2.141-104.34-2.205-109.5-2.864-172.65 17.147.47 59.328-.466 50.131 10.616zm-.841-19.238c-3.814 2.887-6.048 2.892-29.604.072-21.9-2.622-19.167-1.172-20.947-15.237 19.938 1.261 66.81 2.856 50.551 15.165zm65.035 95.946c-2.12.886-12.186 4.696-12.186 6.597 0 3.267 4.617 12.248 5.726 11.138.649-.649 1.18 2.746 1.18 7.543s1.161 10.948 2.579 13.668c3.332 6.388 3.771 54.016.529 57.259-4.234 4.234-7.105-.227-48.861-7.424v-172.28l23.289 1.052c29.628 1.339 27.287-2.445 27.54 44.517l.204 37.931zm-3.553 10.123c0 3.604-2.276 5.883-4.076 4.083-2.134-2.134-1.075-7.435 1.486-7.435 1.425 0 2.59 1.508 2.59 3.352zm2.04-116.44c-3.423.211-6.187 1.031-20.169-2.895-17.112-4.805-27.376-7.021-28.313-7.738-.836-.641-.225-189.02.618-190.4 1.441-2.348 45.523.073 46.474 2.552 1.261 3.28 1.377 192.57 1.39 198.48zm-1.306-233.11c.143 13.148-.863 14.299-9.648 11.044-4.867-1.804-7.537-5.926-4.896-7.558 2.438-1.507-.018-6.043-3.273-6.043-4.238 0-13.94-6.906-22.838-6.906h-6.388l.211-93.232c13.863 0 13.295.112 13.295 27.624 3.331 0 14.392.456 16.725-1.877 1.351-1.352 2.202-1.352 3.037 0 .638 1.032 3.445 1.877 6.238 1.877 2.792 0 5.141.194 5.217.432.267.83 2.19 62.695 2.32 74.639zm-44.296-171.02.848-4.435c1.632 1.582 11.637 10.954 11.637 12.482 0 1.778-3.938 2.908-6.906 1.983-4.262-1.329-6.48-5.318-5.579-10.03zm.165 23c1.079.237 1.961-.749 1.961-2.191 0-2.852 4.755-2.239 14.675 1.891 9.277 3.862 17.682 16.106 15.306 22.298-.55 1.433-1.499 2.473-2.11 2.313-4.731-1.246-28.762-.732-31.338-4.887-2.237-3.611-.969-19.969 1.506-19.424zm17.068 31.051c19.198.391 30.036 4.08 15.107 5.142-30.306 2.157-35.394 4.039-35.394-2.818 0-2.367 2.745-2.681 20.287-2.324zm-14.285 127.54c11.038 1.533 32.606 7.899 35.373 10.441 2.904 2.667-4.205 2.322-41.012 2.322l-1.309-13.728 6.948.965zm-5.987 231.33c2.963-2.963 44.875 2.61 44.875 5.967 0 2.558-2.257 2.684-23.203 1.295-19.953-1.322-25.69-3.244-21.672-7.262zm.586 198.05c1.419.544 11.77 2.311 23.003 3.925 19.017 2.733 24.049 4.565 21.934 7.987-1.483 2.399-28.587.049-46.4-1.213-.849-8.881-1.507-11.838 1.463-10.699zm-2.307 19.662c21.073.329 46.91.203 49.634 2.875 3.086 3.026 5.29 169.61 2.318 175.16-3.169 5.92-21.551 4.012-22.006-2.284-.137-1.886-.331-4.314-.432-5.395s-2.87-2.47-6.153-3.086c-8.474-1.589-14.089-6.147-19.312-6.16-6.349-.019-5.277 5.031-4.049-161.11zm1.773 180.4c1.937.303 3.527 1.329 3.545 2.278.028 2.101-4.176 3.177-5.855 1.499-2.361-2.362-1.162-4.322 2.31-3.777zm12.517 823.24c-.497-1.899-2.066-3.453-3.488-3.453-2.013 0-2.317-1.241-1.375-5.611 1.526-7.082 2.611-49.424 2.926-59.253l10.932.121c-.041 2.727-.747 68.339-1.912 70.223v-.001c-1.673 2.708-6.183 1.418-7.083-2.026zm6.462 25.036c-.26 3.626-13.871 4.381-13.871.769 0-1.893 7.258-3.893 11.177-3.081 1.55.322 2.761 1.362 2.694 2.312zm-22.501-227.23v-184.39c12.341-2.315 12.731-1.814 23.308.929.694 177.56 1.798 180.74.267 183.22-.734 1.187-2.648 2.018-4.254 1.847-3.626-.386-15.365-1.292-19.321-1.604zm4.556 36.974c-1.944-1.944-1.184-3.982 1.486-3.982 5.455 0 .983 6.451-1.486 3.982zm1.272-237.06c9.376 0 16.618 1.975 16.618 4.532 0 2.35-12.129 3.09-19.423 1.184-5.55-1.451-3.456-5.716 2.805-5.716zm15.753 280.3c.95.301 1.727 1.637 1.727 2.97 0 3.055-5.301 4.203-6.966 1.509-1.343-2.172 2.406-5.377 5.239-4.479zm-2.522-41.729c1.937.303 3.527 1.329 3.544 2.278.028 2.101-4.176 3.177-5.855 1.499-2.36-2.361-1.161-4.321 2.311-3.777zm-6.111-24.482c1.415-2.288 10.039-2.275 8.633 0-1.414 2.288-10.039 2.275-8.633 0zm9.683-236.1c-1.645 4.279-5.361 6.677-5.361 3.453.003-1.629-13.313-1.295-16.405-1.295v-177.83c8.335-.959 9.496-1.693 9.496 3.338 0 2.437.792 4.431 1.759 4.431.988 0 1.31 1.791.735 4.082-.699 2.785-.178 4.407 1.639 5.104 8.046 3.088 15.096 140.62 8.137 158.72zm-8.097-188.76c-6.814 6.35-20.487-.124-13.987-6.623 2.706-2.706 9.814-2.32 9.814.533 0 1.323 1.295 2.902 2.879 3.51 1.696.65 2.228 1.71 1.294 2.58zm-8.377 483.56c5.138 0 6.923 3.548 4.274 8.498-2.213 4.134-10.034 4.906-11.482 1.133-1.585-4.129 2.533-9.631 7.208-9.631zm-6.265 58.271c.927-11.111 8.524.576 7.856 12.086-1.28 22.047-2.073 46.188-3.576 53.522-4.099 19.991-7.313-29.269-4.28-65.608zm9.293 168.25c9.244-3.343 15.331-2.749 14.673 1.431-.557 3.542-17.32 12.819-19.401 10.737-3.372-3.371-.72-10.198 4.728-12.168zm12.647 46.675c-3.03 1.941-4.067 1.398-20.972-2.995 1.293-20.611.624-21.511 9.118-27.254 13.356-9.031 14.163-8.598 14.389 7.714.25 18.048-.078 20.96-2.535 22.535zm.286-89.043c-.967 1.233-.875 2.435.239 3.123 2.24 1.384 2.447 31.395.227 32.767-.871.538-5.144 1.467-9.496 2.063-9.298 1.274-8.666 4.375-6.009-29.501 2.345-29.904 2.139-26.791 18.749-26.858-.417 3.195-1.739 15.893-3.71 18.406zm33.363-849.34c-.598 16.451-.174 16.048-15.6 14.858-20.849-1.608-19.405-5.24-19.219 48.337l.161 46.055h-6.094c-8.174 0-7.992 2.982-.255 2.078 6.273-.732 8.617 1.141 6.931 5.536h-.001c-1.276 3.327-6.58 3.426-13.857.259-7.795-3.393-7.908-3.865-7.546-31.714.384-29.506.529-73.579.648-102.19 41.82.369 55.373 1.902 54.832 16.784zm13.539-336.92c.98.981 1.006 2.629.064 4.153-1.324 2.143-1.739 2.064-2.731-.521-1.383-3.602.344-5.954 2.667-3.632zm45.794 398.7c.2 8.984 1.896 76.646 1.116 81.462-1.147 7.077-3.749 5.45-46.005-7.471l-.932-71.119c18.32-1.849 19.419-2.121 45.821-2.872zm-40.108 348.81c9.56-3.994 9.953-9.897.812-12.191-2.602-.653-4.769-1.297-4.817-1.432-.096-.271-1.327-113.57-2.114-185.46 1.9-.603 7.38-1.971 7.38-3.953 0-.886 1.267-1.61 2.816-1.61 2.254 0 2.62-1.206 1.835-6.043-.66-4.063-.309-6.043 1.069-6.043 2.063 0 32.662 8.662 33.665 9.53 2.988 2.59 3.619 205.43.656 210.89-1.416 2.613-1.469 3.933-.173 4.365 2.025.675 2.737 239.81.724 243.07l.001-.001c-2.566 4.152-32.389-6.551-43.157-15.488-3.021-2.507-.463-13.642 3.951-17.2 2.522-2.033 3.225-4.541 2.927-10.445-.58-11.495.328-9.687-9.492-12.151 0-6.081.337-186.96-1.052-190.58-.757-1.967.642-3.447 4.969-5.255zm39.08 274.81c1.38-1.38 1.898-.389 1.898 3.627 0 6.377-.996 7.092-2.645 1.898-.633-1.994-.297-4.481.747-5.525zm-2.426-8.113c-1.41-2.281 4.316-2.304 4.316 0 0 2.237-2.895 2.298-4.316 0zm-11.223-6.756c0 2.359-1.464 1.923-15.107-4.499-10.63-5.004-15.925-9.463-11.238-9.463 2.788 0 26.345 12.484 26.345 13.962zm-25.924 27.474c4.333 0 17.3 5.125 17.3 6.882 0 3.844-4.647 4.725-11.222 2.13-9.403-3.712-12.977-9.012-6.078-9.012zm42.256 266.02c-1.273 2.055-6.526 2.048-8.637-.017-2.235-2.187-30.18-6.791-33.224-9.234-2.622-2.106-2.827-103.11-.209-103.11 2.942 0 3.428-7.861.924-14.953-2.5-7.081-2.477-7.198 1.649-8.234 6.058-1.52 5.714-8.687-.563-11.733-3.753-1.821-4.678-3.378-4.414-7.432.184-2.82.388-16.499.452-30.397.115-24.764.195-25.283 3.982-25.964 17.205-3.097 4.436 10.66 11.933 10.66 1.735 0 3.154-.777 3.154-1.727 0-12.809 13.703.277 15.692 14.986l2.994 22.134c.644 4.759 2.072 8.633 3.182 8.633 1.108 0 2.5.486 3.094 1.08 1.343 1.349 1.332 153.12-.017 155.3l.008.007zm-5.972-194.37c0-3.426 5.18-3.422 5.18 0 0 3.426-5.18 3.422-5.18 0zm6.834-41.342c-4.859 5.855-20.51-5.039-20.601-14.338-.049-4.956 3.571-4.937 13.774.071 8.203 4.026 10.808 9.47 6.827 14.267zm16.499-666.39c5.895-3.863 44.326-6.313 47.024-2.998 2.272 2.792 3.233 98.806 1.07 106.88-.572 2.137-1.533 3.808-2.135 3.714-3.786-.59-46.812-14.725-47.763-15.692-3.499-3.553-1.811-89.534 1.804-91.902zm-2.609 670.61c0-6.171.448-6.906 4.214-6.906 5.346 0 6.692 2.213 5.272 8.675-1.916 8.726-9.486 7.314-9.486-1.769zm9.322 241.68c-5.843-2.248-8.081-192.43-2.306-196 3.226-1.994 3.787 32.011 8.844 187.03v-.001c.279 8.56-1.448 10.931-6.538 8.973zm7.272-241.68c6.542 0 16.34 4.096 15.848 6.626-.998 5.14-12.101 3.461-15.948-2.411-2.544-3.885-2.537-4.215.1-4.215zm34.173 257.54c-1.398 2.262-20.422 1.686-23.611-.717-4.023-3.029-4.166-12.216-10.042-205.21 16.604 2.805 19.153 2.966 19.153 7.363 0 3.952 1.29 3.31 13.565 1.593-.202 4.084-1.487 38.25-3.422 40.351-3.907 4.242.808 4.502 6.016 5.266-.03 5.781-.481 149.45-1.659 151.35zm-2.43-206.7c0-3.649 3.453-.983 3.453 1.067 0 1.972-3.453 2.674-3.453-1.067zm4.874-34.14c-.833 4.297-3.868 4.549-7.426.617-3.114-3.44-3.076-3.495 2.411-3.495 4.274 0 5.443.67 5.015 2.878zm-1.631-59.422v-.002c-3.3 8.121-35.869-2.996-38.408-13.109-1.305-5.198-8.913-10.382-13.171-13.63 0-407.8-.377-453.66 2.583-453.66 5.209 0 36.356 12.086 43.824 12.086 1.902 0 3.887.694 4.412 1.543 2.113 3.42 4.803 456.82.76 466.78zm851.8-948.56c2.199 2.199 3.442 39.359 1.785 53.364-.936 7.911-.122 7.556-14.288 6.211-3.324-.315-12.452-1.038-20.286-1.605-13.792-.999-19.055-4.45-12.74-8.353.827-.511 2.001-3.47 2.609-6.576 3.854-19.703 35.013-50.948 42.92-43.041zm.729 73.534c-1.123 2.927-1.329 2.934-19.275.733-6.647-.815-15.582-1.49-19.855-1.498-9.302-.02-13.014-1.979-11.453-6.047.81-2.111 2.244-2.64 5-1.845 2.125.613 12.798 1.539 23.719 2.057 20.434.972 23.651 1.943 21.864 6.6zm-80.59-46.188c6.839-14.179 13.887-22.443 25.454-29.842 12.019-7.688 16.538-5.615 7.282 3.342-6.537 6.326-14.376 18.576-16.205 25.325-.643 2.374-2.408 7.23-3.922 10.791-1.513 3.561-3.605 6.35-4.648 6.198-14.461-2.11-15.864.573-7.961-15.814zm-2.75 1260.4c-2.037-2.038-2.099-92.749-.062-92.726 1.092.012 5.312 3.111 9.377 6.887 15.525 14.42 16.243 2.474 20.762 21.579 2.94 12.433 1.537 87.09-1.675 89.127h-.001c-10.834 6.867-34.772-10.271-29.114-20.844.908-1.697 1.229-3.507.713-4.023zm10.075 65.554c2.488-7.379 2.156-7.249 8.659-3.412 12.832 7.571 15.129 2.085 15.129 12.513 0 8.833-.831 9.106-12.086 3.984-13.493-6.142-13.893-6.589-11.702-13.085zm17.931-157.96c-1.533.858-2.787 2.687-2.787 4.064 0 4.238-9.15-1.842-24.694-16.407-9.219-8.639-1.156-20.074 15.239-21.61 14.572-1.366 24.777 26.938 12.242 33.953zm-11.964-534.33c3.003 1.968 3.994 4.229 3.994 9.113 0 14.916-6.099 8.475-15.276-3.51-12.085-15.781-10.621-16.44-10.621-26.51 4.313 4.405 16.959 17.667 21.903 20.907zm-20.191-46.976c.958-.592 1.739-2.39 1.739-3.996-.004-3.531 20.49-3.282 21.024.255.167 1.103.385 11.134.484 22.292.209 23.477.712 22.895-9.675 11.196-7.004-7.888-8.449-8.786-11.352-7.054-3.143 1.875-3.344 1.334-3.644-9.816-.175-6.49.466-12.285 1.424-12.877zm1.435 346.16c-.605-4.728 15.181-7.59 19.964-3.62 1.159.962 3.765 1.316 5.79.786 4.01-1.049 4.412 7.497 1.29 27.437-1.502 9.594-1.844 9.716-8.424 3.01-5.656-5.765-11.78-8.354-12.766-5.397-2.164 6.491-5.729 1.345-5.522-7.972.121-5.46-.029-11.87-.332-14.244zm27.505-13.812h-27.193c-1.64-50.422-.827-165.73.681-165.68 2.848.091 8.747 4.972 15.078 5.057 9.439.127 9.597 1.507 10.871 95.375.383 28.208 1.148 52.019 1.701 52.913 1.252 2.026-.68 10.051-1.138 12.339zm-15.537-184.31c-.782 2.382-8.515 3.869-10.387 1.996-4.425-4.425 11.618-5.743 10.387-1.996zm3.875 13.381c0-2.284 5.179-2.281 5.179 0 0 2.284-5.179 2.281-5.179 0zm8.202-13.381c-.831 2.496-5.215 3.706-6.991 1.93-2.428-2.428-1.108-4.088 3.25-4.088 2.799 0 4.191.803 3.741 2.158zm-20.268-86.732c4.632 6.505 3.944 8.555-2.176 6.478-3.726-1.265-4.748-2.695-4.748-6.647 0-6.445 2.254-6.39 6.924.169zm8.149 62.393c10.055 3.397 10.957 4.102 10.481 8.201-.608 5.233-.98 4.504-24.692 5.478-.582-19.421-2.727-19.401 14.211-13.679zm-2.425 416.82c-5.898.905-9.503-2.099-5.535-4.612 3.475-2.201 8.301-.452 18.781-4.15 9.204-3.247 8.633-3.354 8.633 1.621 0 3.725-.945 4.331-8.201 5.255-4.511.576-10.666 1.424-13.678 1.886zm15.991-18.257c-2.176 0-6.209.713-8.962 1.584h-.001c-17.568 5.559-15.789 13.387-15.768-69.39l.019-70.396c.103.032 7.249 2.168 7.419 2.453 3.437 5.854 8.328 11.28 9.895 10.976 1.135-.22 2.303 1.676 2.597 4.214s2.536 6.617 4.984 9.065c5.013 5.014 6.581 27.438 2.456 35.145-1.618 3.023-1.516 4.596.501 7.701 6.557 10.1 3.88 68.648-3.14 68.648zm-10.509-1083.4c0 3.257-11.879 2.39-15.539-1.135-2.488-2.395 15.539-1.011 15.539 1.135zm-12.187 12.047c-3.197-2.508-3.119-2.607 1.695-2.158 9.505.886 6.58 8.648-1.695 2.158zm-7.883 13.419c.245-4.438 10.439-5.737 13.553-1.727 2.347 3.023 2.073 74.12 2.707 83.304.401 5.813-11.641 8.892-15.523 3.97-1.429-1.81-1.96-63.426-.737-85.547zm-652.56 1196.4c-1.79 3.345-4.945 3.688-11.92 1.295-5.358-1.838-22.63-6.684-28.487-8.347l.924-181.87c15.73 3.146 12.867-3.029 16.128 49.625.135 2.182 1.643 3.656 4.098 4.005 4.603.654 4.581.926 2.015-24.568-2.335-23.204-2.618-20.89 10.148-18.087.764 19.835 1.796 50.945 3.795 73.18 2.399 26.671 1.574 64.311 3.573 86.205.872 9.546.768 16.614-.274 18.56zm-30.129-231.31c3.383-3.383 21.766 5.891 21.284 10.738-.648 6.512-2.411 6.937-11.042 2.665-6.454-3.195-12.517-11.128-10.242-13.403zm35.455 106.96c0 21.154-3.064 8.914-3.848-15.376-.452-14.006-1.131-26.613-1.509-28.015-.84-3.121 4.193-3.286 7.627-3.805-.734 11.995-2.27 35.128-2.27 47.196zm-6.553-89.972c.403-3.454 1.344-4.279 4.398-3.855 6.815.948 26.594 10.748 25.9 12.832-2.417 7.251-31.195-1.276-30.298-8.977zm72.172 135.7c-.149 31.036-1.328 23.366-2.817 64.856h-.001c-1.294 36.036-1.521 36.675-11.85 33.357-10.115-3.249-39.274-10.589-45.321-12.281-5.921-1.657.576-60.875 1.721-140.98.336-23.533.951-30.646 2.651-30.646 4.511-.02 14.225 5.089 13.783 7.25-.773 3.775 8.26-.529 20.171 4.019l7.411 2.83c4.563 47.63 3.289 49.771 7.825 49.771 3.448 0 3.524-17.825.161-37.327-.819-4.749-.376-5.525 3.741-6.559 11.364-2.851 2.811 5.687 2.525 65.712zm-15.1-115.06c7.607 0 18.676 5.777 18.158 9.478-.615 4.399-4.079 4.86-11.898 1.586-7.799-3.266-12.211-11.064-6.26-11.064zm24.335 218.93c-7.423.721-7.204 2.729-4.75-43.692 3.88-73.356.941-119.99 6.555-119.99 2.59-.001 1.227 20.546 3.644 163.16l-5.449.53zm2.108-206.27c3.492-1.34 24.04 7.225 24.04 10.035 0 6.063-23.958.6-25.644-5.848-.487-1.858.199-3.648 1.604-4.187zm79.287 196.23c-.599 14.707-1.229 26.833-1.398 26.945h.001c-1.883 1.248-11.531 1.978-11.531.872 0-.808-4.079-1.903-9.064-2.432-10.891-1.157-33.848-7.615-45.321-10.696-.824-29.928-2.993-114.88-3.49-135.04-.682-27.703-.092-29.963 6.67-25.532 2.278 1.492 7.544 3.313 11.703 4.047 7.148 1.26 7.539 1.628 7.148 6.676-.542 7.003 4.243 9.197 8.307 3.808 5.784-7.668 7.282-2.719 6.418 21.204-.788 21.834-.731 22.28 2.801 21.775 3.378-.483 3.636-1.74 4.094-19.938.538-21.426.877-21.931 11.157-16.614 6.438 3.329 12.111 3.145 15.529 3.317-.82 112.1-.708 64.695-3.024 121.61zm3.214-157.95c-1.287 3.354-2.854 3.114-15.395-2.352-20.584-8.973-20.241-14.74.468-7.853 11.291 3.755 16.132 7.065 14.927 10.205zm69.301 203.29c-1.494 5.815-1.591 5.81-27.607-1.392-11.395-3.155-24.03-6.261-28.077-6.903-9.292-1.475-8.974-.682-7.224-17.993 1.272-12.589 4.36-75.973 5.72-117.44.458-13.951.441-13.935 10.31-10.028 4.897 1.939 5.786 7.985 2.744 18.66-.516 1.808.564 2.59 3.578 2.59 3.844 0 4.375-.803 4.847-7.338.736-10.17 2.229-8.596 21.051-.27 0 43.511-.467 45.929 3.262 46.905 4.627 1.21 6.651-.637 6.17-5.63-2.744-28.483-2.901-36.257-.734-36.257 3.018 0 14.377 3.99 15.473 5.436 1.296 1.708-1.359 56.486-3.48 71.825-2.655 19.204-4.299 51.091-6.033 57.84zm-59.91-202.43c3.636 0 7.251 3.185 7.251 6.388 0 2.228-4.059 2.773-8.201 1.101-3.396-1.37-2.621-7.489.95-7.489zm45.234 24.768c0-3.079 6.552-2.936 12.714.277 2.72 1.418 6.022 2.579 7.338 2.579 3.218 0 2.717 6.526 1.098 7.405-2.323 1.26-21.15-7.874-21.15-10.261zm31.88 186c-2.767 4.477-11.629.219-10.484-5.037.55-2.524 1.88-15.466 2.957-28.76 1.905-23.534 2.399-26.502 4.121-24.781 1.289 1.291 4.516 56.781 3.406 58.578zm-2.529-173.73c0-2.91 3.149-3.19 9.35-.833 2.938 1.117 4.059 2.548 3.381 4.316-1.822 4.749-12.731 1.764-12.731-3.483zm69.882 188.71c-.866 3.873-2.8 4.524-7.709 2.594-3.317-1.304-43.65-11.627-50.932-13.508-6.098-109.79-9.533-135.41-5.566-135.41 5.459 0 16.788 7.055 16.788 10.453 0 4.58 4.782 6.288 7.438 2.657 2.421-3.311 3.976-2.204 13.281 1.04 0 52.032-.681 51.797 3.76 51.146 3.671-.539 3.751-1.098 3.342-23.428-.23-12.582-.145-22.876.191-22.876.804 0 18.686 6.367 19.468 6.643.041 6.108 1.079 115.59-.061 120.69zm-21.964-171.46c11.015 2.624 22.99 8.6 22.486 11.22-.798 4.144-4.765 3.721-16.443-1.752-11.413-5.348-15.476-11.715-6.043-9.468zm33.667 21.634c-2.299-.924-3.885-3.041-3.885-5.187 0-2.953.72-3.409 3.885-2.46 5.26 1.578 8.866 5.229 7.44 7.535-1.363 2.205-2.202 2.218-7.44.112zm55.06 154.58c-1.53 19.269 1.06 17.22-58.072 1.459-.031-4.013-1.152-116.48-.167-119.05.943-2.457 20.022 6.099 20.022 8.979 0 3.253 5.584 7.216 6.468 4.59.872-2.591 6.715-2.158 9.374-2.158-.979 43.115-1.804 49.146 4.755 44.999 1.873-1.184 2.498-5.967 2.59-19.816.135-20.349.291-20.555 11.903-15.703 3.894 1.627 6.55 1.945 7.219.863 9.013-14.582-.071 45.197-4.092 95.837zm-1.969-131.3c-4.273-2.217-8.645-4.076-9.716-4.133-2.544-.133-6.614-5.065-5.281-6.399 3.764-3.764 28.825 6.727 27.566 11.54-1.099 4.203-2.786 4.068-12.569-1.008zm87.099 145.51c-1.901 30.609 2.047 22.06-73.866 4.692-4.046-.925-4.706-1.772-3.772-4.835 1.052-3.448 14.046-67.27 15.843-85.291 1.199-12.028 1.621-12.277 12.138-7.186 6.653 3.22 7.331 4.094 6.367 8.201-1.797 7.65-1.657 8.049 2.816 8.049 3.425 0 4.429-.98 4.863-4.748.636-5.522 1.208-5.643 9.776-2.062 5.922 2.474 6.35 3.12 5.44 8.201-1.415 7.899-2.941 39.545-3.901 41.201-1.115 1.923 4.901 6.945 6.456 5.389 1.741-1.741 2.855-13.594 3.091-32.874.17-13.957 4.913-20.214 9.588-12.65 1.229 1.987 9.365 3.434 11.633 3.932-3.903 46.903-4.576 39.474-6.472 69.981zm-69.008-84.445c-1.392 10.191-4.006 16.914-4.146 10.665-.282-12.534 2.22-27.624 4.581-27.624 3.302 0 1.379 3.684-.435 16.959zm2.106-58.564c2.618-2.618 21.518 5.206 20.868 8.638-.686 3.622-7.698 4.045-14.802.892-6.111-2.712-8.746-6.851-6.066-9.53zm57.51 23.611c15.629 4.019 19.229 5.954 18.646 10.021-.923 6.432-25.009-.882-27.924-8.48-1.625-4.234-1.364-4.277 9.278-1.541zm20.815 143.6c-.129 2.762-2.959 2.792-4.654.048-1.364-2.207-1.29-7.133.441-29.551 1.903-24.628 5.55.911 4.213 29.503zm-25.709-199.67c-2.131 5.763-23.063-5.953-43.969-14.195-7.452-2.938-10.67-5.294-12.575-9.206-4.733-9.718-6.922-11.367-17.354-13.066-6.629-1.079-10.325-1.059-10.702.059-1.958 5.813-48.135-12.948-52.798-21.452-4.478-8.165-28.635-20.62-28.635-14.764 0 9.949-35.308-10.419-39.312-10.419-.926 0-4.303-4.194-7.506-9.321-6.138-9.825-16.946-13.659-29.57-10.491-5.894 1.479-42.203-14.062-45.971-19.677-4.197-6.256-13.172-13.672-13.172-16.418 0-2.269-11.322-1.708-18.992.942-4.576 1.58-7.594.695-25.898-7.599-11.395-5.164-23.05-10.306-25.901-11.428-2.959-1.165-6.663-4.743-8.633-8.342-5.962-10.893-11.206-13.484-27.32-13.509-8.319-.012-15.53-.912-17.566-2.192-1.899-1.194-9.669-4.807-17.265-8.028-11.498-4.875-14.306-6.864-16.761-11.87-5.286-10.779-25.289-20.232-31.647-14.956-1.219 1.011-2.585 1.219-3.036.461-1.412-2.374-.837-482.21.577-482.21 2.482 0 221.8 65.177 554.15 180.41 49.14 17.038 114.43 39.265 115.08 39.586 4.886 2.403.533 32.071-4.706 32.071-.882 0-1.604 2.141-1.604 4.759s-.709 7.233-1.576 10.255c-1.474 5.138-1.258 5.565 3.309 6.569 7.041 1.547 6.828-1.127 6.934 87.308.097 81.818-.04 84.479-4.334 84.479-3.07 0-10.063 9.797-8.638 12.102.6.971 1.696 1.393 2.435.937 1.691-1.046 9.099 7.265 10.877 9.121l1.101 172.07-4.933 4.316c-7.732 6.766-7.532 34.333.231 31.869 2.503-.795 3.253-.126 3.338 2.976.637 23.3 1.884 94.134 1.718 97.665-.142 3.033-4.419 2.687-7.128-.578-1.763-2.124-4.03-2.474-10.139-1.565-.1.025-7.951 1.239-9.726 2.697-2.756 2.266-20.668-8.249-32.28-12.079-4.871-1.607-7.147-3.667-9.029-8.171-4.481-10.726-17.698-18.224-23.435-13.297-4.344 3.731-10.301 3.237-22.315-1.852-13.714-5.809-14.615-6.614-12.282-10.973 2.331-4.356.863-5.642-12.616-11.047-8.382-3.361-10.558-5.089-12.086-9.603-2.967-8.76-25.958-18.781-28.337-12.348zm125.46 110.26c-2.214-.026-6.551.455-9.637 1.067-5.197 1.032-5.611.777-5.611-3.453 0-5.864 3.707-7.214 11.582-4.217 7.404 2.819 9.543 6.672 3.666 6.603zm-21.477-6.122c-2.825 7.361-35.209-10.052-35.209-18.932 0-1.688 6.321-.656 9.543 1.558 1.873 1.287 8.65 4.069 15.059 6.184 11.363 3.747 12.858 5.325 10.607 11.19zm-62.401-34.057c7.808 2.798 9.772 4.582 6.906 6.269-7.711 4.539-17.697 1.74-17.697-4.96 0-5.04.284-5.075 10.791-1.309zm48.583 114.18c-4.799 28.191-6.921 34.763-10.195 31.577-2.368-2.305-43.804-11.506-44.987-12.689-1.143-1.143-2.229-69.323-3.295-81.169-.829-9.218-.09-9.626 8.595-4.748 3.381 1.899 8.515 3.453 11.407 3.453 5.099 0 5.243.219 4.742 7.157-.439 6.081.064 7.372 3.349 8.587 4.163 1.54 4.187 4.087.236 24.482-2.165 11.178-2.105 11.569 1.787 11.569 5.113 0 6.65-4.6 7.977-23.872 1.374-19.942 1.238-19.82 14.8-13.278 8.328 4.018 9.024 4.099 11.073 1.298 3.732-5.104 4.499-1.229 1.849 9.331-1.396 5.565-4.698 22.801-7.337 38.302h-.001zm83.017 2.202c-.036 9.921-1.896 48.964-2.439 51.193-.459 1.884-9.406-.237-12.018-2.849-1.874-1.874-3.928-2.633-4.791-1.77-2.092 2.09-30.076-6.267-43.724-8.989-14.945-2.98-14.037-1.619-12.892-19.33 1.953-30.194 6.757-58.144 9.993-58.126 2.94.015 10.9 5.169 14.319 5.169 3.261 0 3.141 10.809-.191 17.253-2.849 5.508-1.259 7.822 4.186 6.094 2.255-.715 3.678-3.344 4.5-8.312 1.545-9.336 1.821-9.718 6.214-8.569 3.907 1.022 3.681 34.567-.284 41.974-1.819 3.398-.589 5.082 3.712 5.082 4.227 0 6.673-9.646 6.69-26.33.011-15.335.716-15.854 13.273-9.775 4.096 1.983 8.809 3.807 10.473 4.055 2.574.384 3.018 2.355 2.979 13.23zm3.642-54.841c-.553 2.768-1.007 5.712-1.007 6.543 0 5.375-27.257-8.771-32.372-16.801-10.675-16.76 4.588-2.296 25.178 2.901 8.889 2.245 9.173 2.499 8.201 7.357zm2.446 109.92c-2.28 0-2.281-6.906 0-6.906 2.28 0 2.281 6.906 0 6.906zm0-12.085c-2.28 0-2.281-6.906 0-6.906 2.28 0 2.281 6.906 0 6.906zm20.657-29.238c-3.222 6.019-5.507 3.848-4.208-3.998 1.38-8.344 2.078-9.927 4.371-9.927 2.183 0 2.07 9.753-.163 13.925zm3.42-59.409c2.898-2.899 5.635 1.148 4.32 6.388-3.063 12.2-7.027-3.683-4.32-6.388zm16.064 110.59c-18.438-4.682-18.149-6.931 1.487-11.541 18.289-4.293 16.573-4.882 17.334 5.947.732 10.423.486 10.496-18.821 5.594zm17.697-24.83-12.086 3.058c-6.647 1.682-13.834 3.587-15.97 4.232-4.302 1.3-4.231 1.463-4.276-9.924-.06-15.497 2.266-30.741 4.691-30.741 1.743 0 27.54 11.155 29.776 12.876.386.297-.62 8.479-2.135 20.499zm5.282-1259.2c3.385 0 7.742-.849 9.681-1.886 4.953-2.651 6.38-.202 5.112 8.77-1.402 9.921-4.238 10.356-13.612 2.086-8.927-7.877-9.071-8.97-1.181-8.97zm5.927 525.26c0-3.816 4.934-7.18 11.222-7.652l6.906-.518-.208 6.596c-.278 8.852-17.92 10.402-17.92 1.574zm10.355 493.38c0-9.482 3.269-6.855 3.072.091-.228 8.039-3.072 7.955-3.072-.091zm-.565-11.066c-1.189-3.098.503-9.652 2.492-9.652.839 0 1.525 2.285 1.525 5.078.001 5.542-2.536 8.431-4.017 4.574zm4.696-49.794c-1.751 36.1-5.678 24.855-5.578-15.97.091-36.795-.587-80.265-.388-85.894.13-3.614 4.3-3.021 7.944-3.021-.3 26.401-.747 79.513-1.978 104.88zm-2.401-117.84c0-3.92 3.712-2.04 3.712 0 0 2.097-3.712 3.886-3.712 0zm4.808-30.798c-.497 20.612-1.823 24.199-6.771 18.323-4.429-5.26-.546-22.621-3.829-32.845-2.4-7.474.288-10.557 6.669-7.649 4.416 2.012 4.417 2.02 3.931 22.171zm1.964-129.77c-.051 1.899-.623 24.366-1.27 49.926l-1.178 46.473c-.101.013-9.439 1.418-9.677.777-1.119-3.028-.588-23.46.651-25.071.903-1.175 1.052-4.282.33-6.906-.721-2.624-1.51-19.532-1.753-37.574-.75-55.715-2.631-87.189 1.815-87.189 1.424 0 2.59.747 2.59 1.659 0 .913 1.614 3.163 3.587 5.001 3.331 3.102 5.588 27.449 4.905 52.904zm-12.935-70.117c-1.219-1.972 2.054-4.913 5.519-4.96 2.583-.035 6.099 4.302 4.656 5.744-1.841 1.841-8.888 1.298-10.175-.784zm10.996-13.965c-2.248 2.248-3.564 2.326-9.788.58-6.496-1.822-6.878-14.463-.389-12.897 12.089 2.92 15.476 7.019 10.177 12.317zm3.113-92.351c-1.288 6.864-.561 6.008-19.168 6.229l-.321-15.009c12.886-1.507 21.843-3.766 19.489 8.78zm-1.909-45.424c-3.266 2.717-3.264 4.745.017 8.026 3.278 3.278 2.084 11.993 1.709 18.735l-9.188.019c-11.703.025-10.666 2.907-10.666-29.658 0-27.048.141-28.2 3.453-28.2 3.971 0 4.156-.64 1.578-5.457-1.665-3.111-1.463-3.372 1.81-2.333 6.571 2.086 8.863-6.07 8.47 1.106-.123 2.252 1.043 6.983 2.592 10.513 3.618 8.251 3.751 24.322.225 27.249zm21.286-478.25c-7.344 0-19.424-.683-22.056 2.487-1.136 1.368-3.058 2.106-4.272 1.64s-3.453 1.053-4.975 3.375c-2.672 4.078-17.556 7.445-19.439 4.399-.627-1.015-1.628-48.054-.75-80.982 25.359 1.863 28.001 2.01 52.599 4.336.883 55.762.545 53.645-1.107 64.745zm66.383 1276.4c-1.892 1.072-5.639-.51-5.639-2.381 0-2.069 4.687-2.05 5.969.024.546.884.397 1.945-.33 2.357zm-8.73-14.226c-8.195-1.386-7.642-4.324.931-4.945 5.604-.406 7.338.08 7.338 2.056 0 3.481-1.557 4.025-8.269 2.889zm.827-215.56c-5.081 3.23-6.387 1.343-6.387-9.231 0-10.76 2.406-15.104 8.44-15.242 3.044-.07 1.157 22.433-2.053 24.473zm-1.207-40.067c3.024 0 2.143 6.632-3.108 1.381-2.517-2.517-2.712-7.688-.345-9.151 1.503-.929 2.547 2.573 1.931 6.474-.113.713.572 1.296 1.522 1.296zm2.106-125.06c2.844 4.515 1.871 96.138-1.039 97.766-3.413 1.91-3.701 6.572-.405 6.572 2.692 0 4.765 5.978 3.351 9.663-1.198 3.122-2.541 2.977-5.74-.622-2.209-2.485-2.59-12.898-2.59-70.764 0-59.386.323-67.787 2.59-67.342 1.978.388 2.599 3.152 2.631 11.696.023 6.154.563 12.017 1.202 13.031zm-1.272-121.4c.873 51.361.307 58.202-4.127 49.919-2.211-4.131-2.555-144.2-.351-142.84 2.087 1.289 3.376 28.044 4.478 92.924zm-4.284-105.75c2.28 0 2.281 8.633 0 8.633s-2.282-8.633 0-8.633zm1.732 172.65c2.453 0 3.43 1.125 3.375 3.885-.107 5.337-3.963 13.943-5.54 12.366-3.142-3.142-1.396-16.251 2.165-16.251zm-4.307 228.76c9.819-.947 11.196-1.629 11.419 2.912.005.111 3.893 148.01 3.896 148.12h-.001c.329 13.898-2.017 11.573-22.913.897 2.321-30.456 3.087-63.899 7.599-151.93zm-6.147 202.87c4.835 0 4.233 3.453 1.067 3.453-1.368 0-2.968-.777-3.555-1.727-.586-.95.534-1.726 2.488-1.726zM1543.3 836.09c-3.238-9.258 3.147-7.15-.035-17.62-2.522-8.298.365-15.371 6.275-15.371 5.824 0 5.719-.6 6.431 36.688h.009c.54 28.349.286 32.355-2.049 32.236-7.322-.374-10.917-4.001-9.587-9.671.486-2.071.124-5.761-.803-8.201-2.826-7.426 2.694-9.64-.241-18.061zm13.253 47.962c-1.285 2.079-10.042 2.644-11.917.769-2.755-2.754-.872-5.753 3.597-5.729 5.896.033 9.893 2.416 8.32 4.96zm-12.065 73.102c-.054-4.563-.845-39.295.862-42.056.735-1.189.258-4.245-1.06-6.794-4.787-9.256 4.767-20.957 10.834-13.268.937 1.187 2.206 16.726 2.82 34.53 1.315 38.076 2.083 34.437-13.456 27.588zm40.867 1335.7c-4.197-.595.678-.873-28.919-7.585-.458-31.951-2.669-31.575 14.397-23.308 5.881 2.849 11.845 5.18 13.255 5.18 2.037 0 2.562 2.651 2.562 12.949-.001 7.121-.583 12.865-1.295 12.764zm6.8-867.59c2.345-1.449 7.282 3.71 5.817 6.08-.643 1.041-2.198 1.892-3.456 1.892-2.818 0-4.743-6.5-2.361-7.972zm657.64 358.54c1.863.997 2.932 2.551 2.375 3.453-1.624 2.627-3.998 1.908-5.989-1.813-2.086-3.897-1.283-4.261 3.614-1.64zm-569.92 526.4c0 4.998-19.075 2.436-24.848-3.337-.957-.957-4.092-1.74-6.966-1.74-19.803 0-34.764-5.878-36.251-14.244-1.82-10.239.468-9.746 47.045 10.133 9.804 4.184 18.545 7.164 19.423 6.621.879-.544 1.598.612 1.597 2.567zm-65.59-76.266c1.899-1.186 3.453-3.135 3.453-4.331 0-3.229 3.888-2.677 16.384 2.325 19.129 7.658 10.585 7.391-7.751 10.867-4.273.81-8.975 1.981-10.449 2.602-5.839 2.462-7.32-7.914-1.637-11.463zm52.408 35.187c-30.162-13.83-34.728-15.795-36.694-15.795-1.052 0-1.914-.67-1.914-1.488 0-3.809 34.903-7.279 37.12-3.691.587.95 2.948 1.727 5.247 1.727 4.997 0 13.849 3.869 18.488 5.725-2.393 23.184.113 23.775-22.247 13.522zm2.838-59.089c0-2.558 8.585-.533 12.024 2.835 2.213 2.168 2.106 2.462-.863 2.367-5.118-.166-11.161-2.982-11.161-5.202zm24.341 65.974c2.427-16.024 1.375-17.01 14.282-11.758 19.464 7.918 6.228 6.988-14.282 11.758zm68.118 17.18c-.532 2.767-1.418 7.361-1.968 10.21-.55 2.848-1.521 5.145-2.158 5.104-4.899-.321-55.543-23.893-55.543-25.852 0-5.381 31.802-4.406 34.288 1.051 1.914 4.2 2.557 4.402 10.536 3.305 12.253-1.687 16.054-.104 14.845 6.182zm-17.988-12.293c3.278 2.731 3.509 3.406 1.178 3.453-2.574.051-8.324-4.169-8.324-6.108 0-1.745 3.366-.493 7.146 2.655zm-1.092-36.924 4.852-.625c4.738-.611 9.823 1.985 9.823 5.015.001 2.666-2.768 1.15-14.675-4.39zm25.042 59.831c.041-5.233 2.043-10.764 3.896-10.764 3.81 0 20.572 8.996 19.157 10.282-3.55 3.227-23.077 3.635-23.053.482zm63.418 34.764c-2.137.573-4.273 1.01-4.748.974-2.18-.17-43.384-19.697-49.637-21.465-16.346-4.621 25.813-10.327 48.343-.922l9.927 4.145c0 14.03.553 16.079-3.885 17.268zm11.547-3.043c-2.228-8.877-.129-10.095 9.857-5.719 10.867 4.763 12.775 8.115 4.639 8.148-11.521.047-12.852 4.121-14.496-2.429zm58.527 32.187c-.976 3.598-3.361 3.722-9.318.482-4.464-2.428-34.47-15.218-40.043-17.067-15.457-5.131 19.175-8.686 35.721-3.667 16.332 4.954 17.37 6.495 13.64 20.252zm8.046-2.806c0-7.38 1.487-7.698 12.729-2.725 9.08 4.016 10.325 6.825 3.025 6.825-14.375.001-15.754 5.593-15.754-4.1zm61.726 32.231c-2.318 4.992-3.146 5.464-5.698 3.253-.902-.782-9.409-4.714-18.905-8.738-23.271-9.862-25.21-10.893-24.504-13.031 1.031-3.122 25.098-3.282 29.805-.198 2.24 1.468 5.406 2.669 7.033 2.669 12.017 0 16.81 6.267 12.269 16.045zm18.883 4.242c-.555-1.445-1.775-.875-3.695 1.727-5.653 7.661-10.388 4.378-7.705-5.342 1.913-6.928 3.735-7.548 11.243-3.829 7.666 3.799 14.509 5.517 14.509 7.833 0 2.56-13.36 2.198-14.352-.389zm53.281 29.092c-1.349 7.192.611 7.624-24.253-5.342-27.143-14.155-18.184-21.652 12.927-10.817 12.062 4.201 13.251 5.897 11.326 16.159zm8.366 7.597c-4.024 0-.678-4.156-.678-6.286 0-.904 3.453.355 3.453 3.798-.001 1.368-1.249 2.488-2.775 2.488zm1.86-13.813c4.463 0 21.782 8.721 20.722 10.435-2.311 3.74-13.881 1.757-18.622-3.192-5.253-5.483-5.763-7.243-2.1-7.243zm14.259 25.898c-3.632 0-4.888-5.18-3.143-5.18.803 0 2.428 1.166 3.61 2.59 1.75 2.109 1.663 2.59-.467 2.59zm41.733 11.828c-2.34 6.713-2.645 6.691-20.001-1.462-15.875-7.457-15.597-9.477-19.628-17.272 24.684 0 46.603-1.272 39.629 18.734zm7.103-1.9c.073-6.006 3.001-7.317 9.459-4.237 3.43 1.636 5.761 3.744 5.18 4.685-1.581 2.557-14.672 2.157-14.639-.448zm58.895 28.052c-4.588 14.951-1.934 7.842-52.712-12.836-9.181-3.739-7.141-4.838 11.504-6.196 15.254-1.111 16.38-.946 25.663 3.757 5.34 2.705 11.232 4.919 13.093 4.919 5.097 0 5.329.979 2.452 10.356zm30.857 18.779c0 3.972-5.509 5.045-10.309 2.01-3.246-2.053-2.025-3.212 4.824-4.582 4.786-.957 5.485-.629 5.485 2.572zm-3.508-10.143c-3.829 0-9.751 1.166-13.16 2.59v.001c-10.139 4.236-11.016 3.049-7.389-10.011 2.058-7.411 2.308-7.412 18.446-.061 10.848 4.941 11.562 7.481 2.103 7.481zm49.862 30.908c-11.277 3.931-42.905-9.784-42.905-18.605 0-6.716 10.651-8.361 22.232-3.433 4.156 1.769 8.404 3.216 9.438 3.216 14.384-.001 23.141 14.672 11.235 18.822zm24.583 47.252c-.386-.238 1.442-2.42 4.064-4.85 6.727-6.234 2.767-6.503 2.705-17.595-.024-5.645-9.025-12.552-16.357-12.552-4.203 0-3.169-6.366 1.226-7.544 25.07-6.719 32.083-.762 33.483 28.436 1.325 27.62-1.027 28.941-25.121 14.105zm-12.24-53.126c0-3.426 5.179-3.422 5.179 0 .001 3.426-5.179 3.423-5.179 0zm38.851-331.49-4.729.545c-7.419.854-41.948-15.22-46.548-15.22-8.939 0-8.649-2.816 5.808-56.201 6.802-25.121 12.041-46.001 11.641-46.401-.773-.773-5.891-1.31-10.685-1.852-4.921 18.961-12.608 48.902-18.564 69.528-5.748 19.909-6.473 29.927-2.411 33.299 3.078 2.554 52.409 22.114 60.309 23.912 6.319 1.438 6.115-6.498 2.753 107.2-1.516 51.269-2.003 102.23-1.3 135.96h.008l1.125 53.954-3.879-.136c-6.697-.235-37.546-14.135-37.546-16.917 0-8.216-13.709-14.713-34.53-16.366-14.316-1.136-35.565-11.654-38.699-19.154-1.711-4.095-4.147-6.327-8.46-7.75-3.332-1.099-6.524-3.214-7.094-4.699-.72-1.876-1.689-2.183-3.174-1.005-11.705 9.285-31.521-5.284-46.596-10.51-1.662-.576-3.021-2.661-3.021-4.633 0-5.713-7.576-12.061-14.396-12.061-4.563 0-6.137-.832-6.868-3.627-.521-1.995-1.744-3.135-2.716-2.534s-1.33 2.233-.795 3.627c1.666 4.341-6.808 2.98-20.421-3.279-6.954-3.197-14.404-6.361-16.555-7.031s-6.622-5.454-9.935-10.633c-4.398-6.875-7.366-9.684-10.999-10.411-3.006-.601-5.74-2.672-6.906-5.232-1.068-2.344-2.766-3.721-3.8-3.082-1.348.828-1.346 1.686 0 3.032 7.325 7.326-11.267 6.367-27.234-1.403-6.829-3.324-13.123-6.043-13.987-6.043s-3.321-3.115-5.461-6.921c-11.349-20.192-23.117-6.886-50.716-19.781-6.647-3.106-13.64-6.162-15.539-6.792s-5.598-4.251-8.22-8.047c-5.464-7.908-10.356-10.254-21.391-10.254-12.241 0-44.183-14.613-48.205-22.054-4.701-8.697-12.539-12.59-27.642-13.733-8.668-.656-13.421-1.782-14.011-3.321-.491-1.281-2.658-2.329-4.814-2.329-8.619 0-16.267-4.979-20.575-13.394-5.328-10.406-8.927-12.498-23.636-13.73-8.102-.679-11.927-1.718-11.927-3.238 0-1.231-.899-2.793-1.998-3.473-1.384-.855-1.682-.027-.97 2.697 2.22 8.491-31.313-4.259-34.725-13.203-4.798-12.574-11.893-16.132-32.4-16.242-24.28-.132-20.231-3.211-43.856-12.088-9.823-3.691-9.985-4.369-10.213-42.952-.219-36.979-1.644-107.17-2.297-113.14-1.074-9.826 2.628-26.553 6.653-30.052 5.964-5.186 2.104-17.427-5.496-17.427-3.723 0-.81.93-4.924-139.38-.918-31.294-.07-36.623 6.169-38.798 7.972-2.779 7.254-14.174-1.115-17.671l-6.043-2.525c-.594-23.932-4.481-155.22-4.046-175.06.103-4.694 5.54-11.578 9.146-11.578 3.335 0 23.322 7.442 28.551 10.631 2.857 1.743 7.042 3.171 9.299 3.175 7.401.011 112.49 37.944 134.66 44.934 5.665 1.786 7.969 3.586 9.233 7.213 1.795 5.15 4.8 6.555 4.8 2.244 0-4.192 4.774-3.155 36.431 7.911 41.576 14.533 61.778 8.979 58.116-15.975-.993-6.762-17.251-11.529 116.09 34.036 87.208 29.801 226.32 79.239 226.99 80.667 7.81 16.701 26.262 25.976 35.337 17.764 3.276-2.964 4.051-2.818 22.035 4.15 10.252 3.972 19.731 7.297 21.065 7.389 2.917.198 1.619 249.01-4.149 385.46zm7.435-450.89c-.69 14.398-17.011 13.624-42.748-2.027l-5.723-3.48c11.541-2.908 10.556-3.243 48.981-5.125-.694 14.475-.51 9.62-.51 10.632zm34.021-56.702c10.278-.434 15.62-.846 45.196-2.884 3.844 114.78 3.417 109.39-3.76 105.23-4.358-2.527-34.443-13.905-41.436-16.591v-85.756zm36.745 906.31c-2.91.919-42.459 2.105-47.63 2.285-1.709-43.281-3.854-43.646 11.976-36.213 24.837 11.663 23.381 11.19 36.863 13.367.556 10.661 1.53 19.696-1.209 20.561zm12.887-310.66c-13.163 276.13-7.971 232.53-10.351 244.98-.474 2.478-1.742 4.361-2.818 4.186-6.879-1.122-20.284 1.208-45.983-13.264-11.13-6.269-.176-293.32 7.397-694.54 6.479 1.626 3.687.2 50.441 20.115 5.053 104.66 3.185 399.28 1.314 438.53zm64.548-310.77c-1.869 50.812-.01 65.189-3.278 60.738-2.863-3.901-17.427 19.459-20.52 32.911-2.049 8.914-1.971 9.279 5.185 24.336 10.573 22.249 7.609 25.624 11.078 32.768 4.692 9.662-10.767 61.366 2.347 82.708 1.93 3.142 2.17 15.472 1.323 68.198-5.168 321.97-3.076 327.58-5.823 332.72-3.488 6.517-33.702-.085-38.904-8.5-1.806-2.921 2.052-121.89 8.651-266.76 11.632-255.36-.081-471.86 3.018-474.96 3.423-3.422 34.269 14.272 33.259 19.079-3.277 15.592-2.786 38.563.778 36.36 2.306-1.424 3.918 32.334 2.886 60.405zm1.427-221.97c-.701 38.046-1.75 69.088-2.333 68.983-1.393-.252-36.343-15.34-38.178-16.129-.092-16.795-.582-112.02-.74-117.05-.12-3.777 38.238-9.262 41.557-5.943.532.532.394 32.096-.306 70.142zm66.54-262.33c1.806-3.374 6.899-4.844 6.899-1.991 0 .797-1.967 2.346-4.37 3.441-4.067 1.852-4.242 1.752-2.529-1.45zm9.809 1167.8c-1.419-1.418-24.433-10.586-27.964-12.021v-20.546l6.474-.536c7.237-.599 8.528-3.787 2.59-6.392-2.999-1.316-4.006-3.377-4.416-9.042-.631-8.717 1.816-9.575 4.922-1.727 3.359 8.488 5.773 8.614 7.712 15.107 1.094 3.662 13.472 31.021 15.817 34.962.937 1.571-3.587 1.743-5.135.195zm1150-208.04c.359 1.078.006 1.94-.786 1.918-2.14-.063-17.94-9.066-17.203-9.804 1.175-1.175 17.329 5.906 17.989 7.886zm-59.147-29.723c6.944 2.663 26.708 12.677 26.708 13.531 0 1.949-4.864.163-15.842-5.817-11.856-6.457-16.868-10.016-10.866-7.714zm-7.862 48.948c4.221 0 20.577 9.405 18.572 10.679-2.603 1.653-17.512 1.853-19.109.255-1.798-1.798-1.349-10.934.537-10.934zm-56.688-145.03c4.772 0 5.339 2.975 1.127 5.925-4.744 3.323-5.924 3.378-7.094.329-1.141-2.973 1.99-6.254 5.967-6.254zm-42.607 95.892c7.982 5.416 16.079 6.391 25.959 12.223 8.635 5.096 6.674 5.002-8.387-.403-6.512-2.337-17.389-4.803-24.171-5.48-11.504-1.147-12.362-1.52-12.779-5.546-1.057-10.2 5.142-10.455 19.378-.794zm-540.23-370.41c4.455 0 10.318 4.069 13.057 9.064 2.325 4.24-.952 3.813-11.043-1.44-8.521-4.434-9.363-7.624-2.014-7.624zm-214.4-108.21c5.973-8.683 14.025-23.994 18.424-35.034 1.311-3.291 4.979-8.262 8.151-11.047 9.194-8.073 10.64-12.726 13.337-42.938 4.832-54.125 5.716-56.394 16.347-42.003 7.296 9.877 16.869 18.218 20.959 18.261 14.229.152 20.923 9.956 34.282 50.203 12.809 38.593 14.161 25.186 14.723 49.891.264 11.589 1.516 19.865 4.257 28.128 3.093 9.323 3.457 12.222 1.788 14.232-4.743 5.717.801 51.081-7.311 42.969-1.253-1.253-31.399-15.533-89.327-42.314-46.112-21.32-43.419-19.026-35.63-30.348zm813.41 1163.1c-4.816 9.564-6.523 15.435-7.448 25.622-.891 9.816-1.867 13.303-3.79 13.559-2.184.29-41.806-18.225-44.266-20.685-1.969-1.969 36.724-25.287 47.945-28.895 14.998-4.824 15.132-4.639 7.559 10.399zm31.911-35.46c-7.414 4.378-15.786 10.318-18.603 13.2-9.505 9.722-15.873 3.209-44.027 18.945v.001c-18.421 10.296-23.001 15.684-28.129 20.597-39.496-19.048-6.906-3.301-115.55-55.063-2.681-10.355-5.82-21.358-7.714-36.878-2.974-24.376-35.291-58.25-55.572-58.25-3.558 0-27.013-8.633-36.018-8.633-3.55 0-7.195-.971-8.101-2.158-1.984-2.601-11.638-26.993-14.908-37.667-1.29-4.21-4.107-11.36-6.262-15.89-4.854-10.205-3.911-56.976 1.065-52.845 8.099 6.721 5.243-17.784-3.212-27.566l-4.991-5.774.499-22.713c.68-30.976-18.008-62.965-41.95-71.809-17.004-6.281-12.493-22.865-24.992-43.498-7.958-13.136-3.7-7.296-10.154-21.404-10.096-22.074-12.655-41.167-23.813-58.523-18.081-28.124-26.729-42.483-28.108-46.67-2.914-8.842-22.724-18.79-55.79-47.791-13.167-11.548-45.412-27.142-74.488-36.021-25.085-7.661-35.347-14.674-47.479-17.393-19.676-4.41-21.845-5.367-29.844-13.162-4.477-4.364-10.879-9.569-14.228-11.566-12.101-7.219-34.776-32.948-33.504-38.015 3.719-14.818-5.645-31.909-22.031-40.207-6.005-3.041-13.631-8.364-16.947-11.828-21.209-22.156-50.911-30.538-86.568-24.432-23.722 4.063-58.166 47.322-56.937 71.509.203 4.002-.83 9.596-2.296 12.432-6.221 12.03-2.613 40.922 7.455 59.687 2.779 5.18 3.691 9.913 3.691 19.149 0 13.104 3.568 28.014 7.252 30.304 1.782 1.107 1.412 3.627-1.8 12.24-8.328 22.335-9.223 21.186 35.53 45.619 9.858 5.382 12.616 11.195 9.366 19.742-3.632 9.552-4.205 23.298-1.212 29.085 5.604 10.836-3.14 9.488 1.063 25.89 2.012 7.85 1.865 8.953-2.224 16.79-8.192 15.696-10.903 27.205-8.59 36.463 2.486 9.948 5.604 34.163 7.003 44.381l10.473 10.123c16.124 15.584 3.538 17.867-24.921 4.52-16.078-7.54-35.001-16.322-47.479-22.119 0-25.731-5.616-65.065-8.55-77.914-2.761-12.094-3.148-18.139-2.211-34.53 1.409-24.616 1.434-50.597.066-66.486-3.234-37.539-5.119-53.896-6.564-56.975-4.008-8.535-8.07-29.618-6.504-33.752.882-2.327 1.165-7.537.63-11.578-.656-4.952-.062-9.257 1.823-13.21 2.667-5.592 2.624-6.106-.912-11.073-3.469-4.872-3.522-5.396-.817-8.101 2.582-2.582 2.646-3.846.598-11.795-3.281-12.732-2.221-44.995-4.711-48.155-4.87-6.179-4.039-11.515 4.44-28.491 14.429-28.893 12.828-35.567 10.835-66.319l7.234-7.388c8.72-8.906 18.567-22.692 20.437-28.612 14.552-46.083 15.988-43.475 16.282-69.061.126-10.92 1-21.762 1.942-24.093 3.321-8.214-3.207-13.632 1.16-22.14 6.144-11.967 11.9-34.78 13.166-52.179 1.155-15.876 6.628-56.97 7.77-58.335.564-.675 115.55 52.794 121.29 55.017 5.654 2.191 4.774 4.499-2.59 6.793-21.598 6.728-31.072 12.951-42.852 11.623-5.047-.569-9.694-.001-12.841 1.569-5.918 2.952-18.626 2.956-25.021 3.188 2.076 19.608 4.38 30.191 20.882 18.992 3.498-2.374 8.078-4.316 10.177-4.316s7.159-2.421 11.245-5.381c6.037-4.373 11.988-6.331 31.768-10.449 38.752-8.069 35.021-7.986 36.998-.825 2.38 8.621 8.336 14.14 9.181 20.131 1.443 10.233 18.734 5.471 18.734-5.159 0-5.026.717-6.949 2.59-6.949 1.424 0 2.59 1.138 2.59 2.529 0 3.466 5.185 5.951 10.377 4.973 5.771-1.087 34.24 14.089 121.83 55.602 23.586 11.179 85.553 41.46 104.76 50.373 13.264 6.155 16.507 9.105 10.009 9.105-14.632 0-25.375 22.062-16.982 34.874 2.62 4 46.224 28.301 56.808 31.66 1.914.607 21.105 9.673 42.646 20.145 230.52 112.06 236.75 112.32 235.89 116.78-3.918 20.182-4.227 7.87-20.829 24.094-3.915 3.826-10.519 8.683-14.676 10.794-15.166 7.701-26.337 21.289-31.614 38.453-2.364 7.689-7.008 2.28-7.535-8.777-.375-7.859-1.17-10.774-2.94-10.774-2.774 0-1.989 14.402 1.252 22.964 3.074 8.121 8.843 5.677 13.447-5.699 5.75-14.208 15.729-25.516 29.328-33.237 5.223-2.966 12.834-8.742 16.914-12.838 19.89-19.967 10.701 5.508-15.936 44.182-5.132 7.451-11.804 19.666-14.826 27.144-14.517 35.922-9.649 18.353-23.281 63.665-5.595 18.595-5.519 17.785-11.204 31.94-6.727 16.749-8.977 95.404-3.156 110.32.964 2.47 1.973 18.476 2.241 35.568.73 46.401 2.144 43.822 25.798 143.74 10.973 46.35 26.641 51.297 38.039 69.352 2.436 3.859 7.512 8.962 11.28 11.341 8.482 5.354 24.149 24.046 32.291 38.524 8.924 15.869 9.825 16.243 33.322 13.851 20.752-2.113 50.63-.212 64.523 4.105l6.661 2.07c-4.005 29.966-2.032 27.102-17.651 36.325zm70.394-345.21c-7.344 11.6-20.336 18.889-23.638 52.914-2.03 20.908-5.615 40.595-8.295 45.542-1.04 1.92-2.685 7.359-3.655 12.085-3.938 19.199-9.335 36.09-8.586 49.828.623 11.42-2.521 15.883-8.51 12.077-2.775-1.764-2.973-5.518-2.425-46.026.58-42.902.501-44.157-2.917-45.986-5.47-2.927-5.708-1.339-6.699 44.541-1.04 48.19-1.02 48.291 10.715 53.107 5.705 2.341 7.516 3.909 6.701 5.799-1.555 3.604-1.665 51.677-3.368 59.279-.673 3.006-1.691 17.888-2.263 33.071h-.007c-1.171 31.087-.49 29.924-14.852 25.387-13.218-4.175-63.528-1.771-77.566-1.197-3.629-5.382-34.628-52.659-41.333-52.659-2.578 0-13.179-10.628-13.179-13.213 0-1.004-4.522-6.794-10.05-12.867-13.974-15.351-25.199-40.731-28.939-65.426-3.255-21.503-24.397-83.63-22.418-133.8.383-9.715-.318-23.306-1.602-31.077-6.608-39.99-4.571-86.546 5.061-115.68 8.734-26.414 14.531-46.345 17.669-53.783 3.24-7.68 1.682-9.566 3.722-11.911 3.53-4.057 9.088-26.034 24.301-49.093 15.049-22.809 14.471-22.454 30.384-55.53 11.31.603 25.86.838 37.923 5.181 5.665 2.039 12.657 3.694 15.539 3.677 6.716-.039 46.582 20.187 56.172 24.877 0 18.164-.753 26.93 27.27 24.6 14.121-1.175 20.018.289 41.241 10.233 11.525 5.401 9.187 31.153-3.335 36.719-2.012.894-1.525 6.273.777 8.575 1.611 1.612.94 2.083-3.021 2.127-20.392.22-14.411 31.022-6.08 31.022 2.744 0 2.241 7.995-.688 10.923-2.886 2.885-1.791 3.064 5.127 7.946-4.162 3.646-10.972 9.993-18.347 13.913-18.413 9.784-3.297 10.474 32.997 14.53 1.107 5.9 2.798 11.505-.162 13.824-3.38 2.648-11.752 16.35-14.806 19.588-2.998 3.18-3.587 9.054-5.724 9.054-.822 0-1.968 1.492-2.546 3.315-.579 1.824-3.739 6.249-7.022 9.833-16.144 17.625 4.761 14.574 35.466 12.377.001 21.121.099 17.889-9.032 32.306zm51.03-253.25c-4.832 2.629-7.218 2.509-13.062-.662-7.383-4.006-5.664-5.683 5.489-5.355 15.903.466 26.091-11.703 22.632-27.035-1.841-8.161-2.775-9.335-10.603-13.329-15.357-7.835 3.958-6.815 22.623-6.815 0 1.947-.137 46.204.432 47.911.633 1.9-22.062 2.32-27.511 5.285zm92.927 11.838c-3.801-4.58-18.974-11.504-28.063-12.807l-9.298-1.333c-.114-2.028-3.174-50.886-1.958-52.102 1.152-1.153 42.922-3.727 44.689-2.754.712.392 1.295 16.594 1.295 36.004 0 36.127-.796 40.064-6.665 32.992zm346.74 61.085c-3.475 6.491 3.538 5.978-.428 10.186-1.672 1.775-1.664 2.413.042 3.038 1.187.435 2.158 1.503 2.158 2.374 0 5.122-9.336.616-11.03-5.323-3.35-11.744-3.166-13.65 1.435-14.805 6.876-1.726 10.155.173 7.823 4.53zm-2.546-43.247h.002v30.214l-4.748.546c-5.18.596-4.905 1.353-5.531-15.222-4.589-121.77-7.333-113.25 7.616-111.36.957 23.615 2.658 60.573 2.661 95.822zm-11.818 431.43c.8.585 1.664 5.83 1.92 11.656h.001c.354 8.039-.145 10.827-2.07 11.566-3.351 1.286-4.632-3.126-5.353-18.428-1.338-28.445-6.089-29.628.725-29.628 5.093 0 9.119 5.416 5.64 7.587-1.934 1.206-1.937 2.057-.018 5.13 1.917 3.069 1.917 4.299 0 7.369-1.263 2.026-1.645 4.162-.845 4.748zm-14.424-51.596c-2.15 0-4.57-15.778-2.63-17.156 4.095-2.911 5.889-41.732 3.276-70.896-.298-3.323.108-6.916.902-7.982.904-1.215-.14-2.977-2.793-4.715-4.406-2.887-4.974-5.201-6.939-28.307-.9-10.588-.837-10.791 3.372-10.791 2.359 0 4.29.701 4.29 1.558 0 1.961 8.176 4.408 10.054 5.063-4.708 13.664-5.407 13.906-1.955 19.053 2.389 3.562 3.113 8.632 3.359 23.532 1.283 77.56 5.586 94.874 1.047 96.616-5.537 2.125-14.414-1.763-11.25-4.927.576-.576.246-1.048-.733-1.048zm-75.334 61.292.399-13.812c.489-16.939-1.506-15.333 24.276-19.547 22.848-3.734 24.24-3.654 24.24 1.394 0 1.773 1.36 3.58 3.021 4.014 2.273.594 2.06.839-.863.99-4.26.219-5.477 3.653-1.295 3.653 5.512 0 2.365 5.107-4.244 6.886-3.758 1.012-7.348 2.674-7.978 3.692s-5.833 4.882-11.563 8.586-10.88 6.624-11.445 6.489c-1.307-.312-12.283-1.993-14.548-2.345zm4.238 10.248c-5.361 2.773-5.394 2.763-5.394-1.625 0-5.372 4.469-7.483 8.118-3.834 2.41 2.408 2.144 2.942-2.724 5.459zm-3.065-51.257c1.431-5.701 22.979-11.976 26.165-7.619 1.156 1.581 4.004 2.875 6.329 2.875 17.015 0 11.039 5.935-9.478 9.413-9.326 1.581-18.059 3.298-19.409 3.816-3.026 1.161-4.913-3.279-3.607-8.485zm54.113 7.542c2.081-.11 4.166.419 4.634 1.177s.137 2.506-.735 3.885c-1.331 2.104-1.59 2.042-1.613-.387-.015-1.592-1.386-3.25-3.048-3.684-2.332-.611-2.159-.836.762-.991zm-25.937 30.527c18.543-12.99 27.321-14.772 27.338-5.548.004 3.525 6.534 7.559 12.302 7.599 6.224.043 8.355 4.325 4.67 9.385-3.396 4.662-3.514 4.68-17.84 2.664-39.859-5.608-39.14-5.225-26.47-14.1zm31.651-39.36c0 3.205-4.769 1.756-5.68-1.727-.532-2.034-2.355-3.453-4.437-3.453-3.915 0-12.326-3.43-12.326-5.025.002-.961 16.147-.992 19.853-.038.95.244 4.402.513 7.673.596 6.892.175 8.276 3.064 8.557 17.848.125 6.631-.466 9.064-2.207 9.064-3.29 0-6.077-3.739-6.173-8.281a923.53 923.53 0 0 0-.188-7.258c-.106-3.399-5.072-5.089-5.072-1.726zm37.643-514.2c-.573 9.792-1.896 11.074-8.136 7.878-8.519-4.363-5.705-16.728 3.82-16.78 4.745-.027 4.827.142 4.316 8.902zm-4.032-17.537c-9.213 3.503-8.959 4.138-9.91-24.783-.715-21.747-.654-22.202 3.218-23.966 7.475-3.406 9.071-1.014 9.114 13.656.095 32.026 4.665 32.399-2.422 35.093zm-1.315-79.444c4.75 0 5.771 7.578 1.256 9.311-3.935 1.51-4.858 1.344-8.593-1.542-4.102-3.169.243-7.769 7.337-7.769zm3.557 19.422c-.774 2.356-10.199 3.912-12.112 1.999-4.702-4.702 13.292-5.594 12.112-1.999zm-13.876 367.64c-.696 19.994-.893 20.224-12.05 14.017-11.821-6.576-11.532-12.245 1.194-23.405 12.076-10.591 11.566-11.032 10.856 9.388zm-19.173-32.496c2.731.615 7.443 1.595 10.472 2.178 6.73 1.296 8.409 4.856 4.25 9.015-1.712 1.713-3.613 4.414-4.223 6.004-.61 1.589-2.26 2.889-3.667 2.889s-3.266 1.265-4.131 2.812c-1.924 3.439-4.084.708-4.85-6.132-1.953-17.433-4.858-18.343 2.149-16.766zm-114.15 46.435c-4.755-2.399-14.861-8.063-22.458-12.585-11.546-6.874-38.271-17.817-51.795-21.208-4.408-1.105-43.262-13.206-50.932-15.584 0-28.909-1.568-31.009 12.641-22.949 20.222 11.472 170.36 89.221 190.22 99.497 31.084 16.079 33.513 17.927 31.766 24.173-1.924 6.876-1.726 26.946.317 32.26 2.694 7.004 1.128 60.647 1.479 67.878.164 3.423 1.996 37.374 2.211 41.377-5.045 1.976-7.314 4.013-25.951 2.959-12.923-.731-16.26-.427-17.019 1.548-.519 1.352-2.064 2.458-3.434 2.458s-4.797 1.192-7.615 2.65c-7.191 3.719-7.818 1.086-5.099-21.416 8.581-71.026-4.616-70.13-7.843-97.501-1.005-8.528-1.839-11.903-8.509-34.419-5.736-19.364-22.846-41.5-37.983-49.138zm108.26 318.67c-62.276 8.194-73.134 11.867-70.528 1.484 1.609-6.413 8.938-1.984 62.803-4.95 24.805-1.366 29.261.633 7.725 3.466zm12.696-22.546c.394 9.893.989 13.443-2.378 13.581-1.604.066-4.274.704-5.937 1.418-7.957 3.418 2.696-8.358 8.315-14.999zm-14.655 13.575c-.899 1.08-9.648 2.553-19.444 3.273-44.305 3.257-46.856 2.697-41.344-9.071 7.461-15.932-1.388-18.837 7.995-18.331 7.244.39 21.781-1.633 71.703-4.562-3.219 6.286-6.501 13.774-18.91 28.691zm11.811-31.876c-9.605 1.467-58.836 3.22-70.647 3.694 0-21.727.312-9.535 10.83-17.808 9.579-7.535 18.147-.173 50.184 2.731 19.206 1.74 25.336 8.985 9.633 11.383zm7.872-29.653c-2.635 0-7.731-4.634-7.731-7.03 0-3.165-8.35.524-1.255-5.056 7.303-5.744 7.857-5.274 10.694 9.064.329 1.668-.436 3.022-1.708 3.022zm9.022 94.649c-8.295-21.01-8.402-22.193-2.187-24.372.891-.312.454-2.232-.972-4.267-5.741-8.197-2.329-33.204 4.532-33.204 6.365 0 10.572 32.157 4.473 34.19-1.564.521-1.47 1.418.372 3.541 2.399 2.765 3.336 17.438 3.336 20.108 1.39 27.597-.007 28.183-9.554 4.004zm14.413-335.98c1.753-5.853 1.728-7.693-.137-9.94-1.536-1.851-2.458-9.389-2.803-22.931-2.028-79.218-6.378-95.225 1.125-95.225 14.064 0 4.624 114.86 9.672 116.79 1.471.564 2.04 4.236 1.777 11.476-.414 11.417-2.572 13.747-8.629 9.317-2.829-2.067-2.934-3.052-1.005-9.49zm1.543 75.759c1.214-2.268 1.248-3.782.1-4.492-3.945-2.438-2.023-13.433 2.153-12.313 2.137.573 4.345 1.047 4.908 1.065 1.334.031 2.362 52.928 5.396 126.06h-10.187c-3.113-102.68-4.631-106.09-2.37-110.32zm21.787-469.23c-9.343 3.183-13.735 3.682-12.324 1.398 1.257-2.034 15.746-5.971 18.543-5.039 1.241.414-1.558 2.052-6.219 3.641zm-10.93 13.103c2.85-2.85 30.358-12.843 31.689-11.512 2.469 2.469 1.521 56.608-1.004 57.308h.002c-3.271.907-25.898 2.627-31.078 3.051l-.018-14.424c-.024-25.634-3.433-30.58.409-34.423zm34.395 71.429c2.268 4.237-1.376 8.653-6.181 7.49-1.97-.477-8.323-.295-14.118.405-14.262 1.723-14.498 1.557-14.498-10.161 0-11.816-.392-11.437 13.44-13.002 10.177-1.151 10.731-1.024 10.731 2.462 0 3.06 1.027 3.676 6.128 3.676 10.63 0 .929 2.462 4.498 9.13zm-26.246 247.95c-.11-16.523-.996-36.525-1.97-44.448-2.389-19.444-3.258-17.002 27.085-18.398-.226 2.604-.777 13.658-2.829 14.412-.992.365-.943 1.43.124 2.715 3.575 4.308 2.533 120.67-1.092 121.96-15.964 5.693-19.797.9-19.396-24.258.387-24.332-1.662-12.513-1.922-51.985zm-5.889-180.25c-.875-8.564-1.359-38.228-1.57-48.343 11.647-2.472 39.754-9.2 33.471 2.54-1.514 2.83-1.87 18.83-1.35 60.692.7 56.396.678 56.855-2.87 57.558-4.715.933-25.152 2.717-25.178 2.198-.218-4.263-1.455-64.394-2.503-74.645zm-.411 510.56c-4.807 5.312-9.088 2.495-5.734-3.772 1.565-2.925 2.382-3.144 5.19-1.39 3.081 1.924 3.122 2.313.544 5.162zm32.209-244.72c1.018.63 1.406 1.868.859 2.752-1.311 2.12-8.933 2.069-10.254-.069-1.247-2.017 6.767-4.306 9.395-2.683zm.067-174.19c-1.004 4.683-1.608 10.45-1.341 12.816h.001c.442 3.92-.128 4.321-6.421 4.514-22.98.705-20.924-2.724-20.719-26.11 29.545-2.924 31.346-4.583 28.48 8.78zm-38.942 345.03c5.755-1.444 7.004-.3 7.004 6.416 0 3.773-.891 5.899-2.59 6.178-8.167 1.343-12.354-10.601-4.414-12.594zm3.101 30.344c2.243 0 4.428 10.429 4.132 19.727-.327 10.303-1.168 11.576-6.703 10.149-5.65-1.456-3.204-29.876 2.571-29.876zm-2.166 93.145c-.881-3.071-1.125-6.355-.542-7.297 1.403-2.271.912-17.319-.903-27.639-1.598-9.082-.995-10.188 4.739-8.688 3.417.894 3.837 2.039 3.605 9.844-.003.102 1.673 77.059 1.761 79.62.502 14.789.348 15.565-3.198 16.091-5.529.82-6.068-2.567-4.909-30.805.58-14.138.333-28.035-.553-31.126zm7.174 71.209c5.712-.661 4.303-.176 3.285 17.362-.042.712-1.655 1.295-3.583 1.295-7.497 0-7.212-17.787.298-18.657zm-4.465 41.533c-.866-13.25-.698-14.244 2.407-14.244 5.741 0 9.492 19.731 5.256 27.646-1.252 2.339-1.304 5.522-.163 9.913.925 3.557 1.902 23.171 2.172 43.587l.491 37.12c-8.33 1.199-7.817 3.172-8.515-12.949-1.005-23.313-.027-66.293-1.648-91.073zm3.152 128.28c-1.426-3.717.732-6.125 5.489-6.125 3.344 0 4.214.891 4.214 4.316 0 4.925-7.939 6.405-9.703 1.809zm12.192-404.69c-2.072-94.995-9.156-90.122 18.366-75.366.008 3.783.531 99.185-.754 100.47-11.316 11.316-16.994 3.223-17.612-25.103zm.965 49.066c0-13.412-.176-12.287 17.838-13.935l-.238 24.171-17.6 1.044v-11.28zm17.265 19.732c0 2.303-7.447 2.273-6.043 0 1.407-2.277 6.043-2.262 6.043 0zm-5.496 8.659c7.111-.025 7.428.19 6.906 4.707-.626 5.425-3.422 6.262-11.213 3.356-10.96-4.088-8.862-8.016 4.307-8.063zm-9.61 10.174c1.627-.6 13.602 2.574 14.365 3.808v-.003c1.046 1.697-2.603 1.702-10.48.017-4.155-.888-6.25-2.95-3.885-3.822zm-.551 16.878c.697-6.922-1.65-9.821 4.865-9.789 10.61.053 12.517 1.527 12.517 9.674 0 4.162-.583 7.487-1.294 7.389-3.45-.478-16.192-6.238-16.088-7.274zm16.864 16.778c-2.013 6.047-15.777.952-16.262-6.02-.365-5.253-.184-5.405 5.18-4.369 5.788 1.118 12.176 7.106 11.082 10.389zm-14.659 32.661c.979-1.256.888-4.575-.239-8.633-2.441-8.796-2.378-21.268.108-21.268 2.466 0 13.07 3.329 15.618 4.093-.211 6.768-1.428 34.202.269 36.912.787 1.257.524 2.158-.629 2.158-1.368 0-1.603 2.233-.759 7.226 3.309 19.585 2.044 36.103-2.963 38.692-11.141 5.761-11.237 5.546-12.16-27.358-.477-16.964-.152-30.66.755-31.822zm6.544 103.23c0 2.775-4.912 1.61-5.485-1.301-.757-3.853.952-29.485 2.032-30.472 7.828-7.156 13.751 1.073 12.5 17.361-.74 9.619-1.284 10.924-4.939 11.841-3.544.889-4.108 2.297-4.108 2.571zm-5.88 19.47c-3.037-7.918 9.975-6.164 8.982-.95-.756 3.97-7.547 4.688-8.982.95zm1.565 21.779c-1.415-2.29 4.316-2.299 4.316 0 0 2.238-2.897 2.296-4.316 0zm6.395 120.77c-4.498-1.798-3.923-2.507-2.942-24.945l10.929-1.06c-.535 25.022.662 29.463-7.987 26.005zm6.554-36.167c-.949 0-1.532-.953-1.295-2.117.238-1.164-1.358-2.389-3.545-2.722-5.66-.86-6.919-5.771-7.417-28.918-.574-26.722.612-23.871 13.983-14.35 0 7.545.614 48.107-1.726 48.107zm24.921-962.75c-7.351 2.208-18.715 6.86-19.714 8.07-1.929 2.338-12.881 6.819-16.667 6.819-2.228 0-4.051.685-4.051 1.521s-3.452 2.391-7.67 3.453c-11.349 2.857-13.048 2.405-13.048-3.475 0-4.402 51.076-22.218 63.695-22.218 5.441.001 3.717 3.949-2.545 5.83zm17.553-38.206c-.693-15.781-.65-15.988 3.544-17.041 6.491-1.629 5.343-3.314 6.676 34.742-1.768.203-9.507 1.458-9.507-.317-.007-.775-.327-8.598-.713-17.384zm10.273 37.458c-1.584 2.563-9.562 2.284-9.533-.334.062-5.645 2.358-9.927 5.325-9.927 3.391 0 6.246 6.962 4.208 10.261zm158.39 682.38c-2.898 2.402-14.7 3.612-17.395 1.784-3.028-2.053-5.376-83.235-2.409-83.235 2.479 0 17.47 7.605 20.898 9.287.637 44.977 1.386 70.11-1.094 72.164zm42.939-1.31c-6.825 3.529-5.257 3.303-21.855-1.687-2.128-64.181-4.779-62.039 12.59-53.01l12.444 6.468c0 6.753-.268 33.65 1.051 40.244.918 4.593.386 5.598-4.23 7.985zm24.409-8.786c-2.488-6.482-1.561-27.328 1.215-27.328 2.081 0 2.621 2.812 2.749 14.31 0 9.308-.832 21.179-3.964 13.018zm35.314-1.804c-3.086.518-6.817 1.421-8.291 2.006-3.919 1.556-5.089-.451-5.089-8.725 0-9.568 1.433-10.196 11.033-4.831 9.66 5.399 10.627 10.159 2.347 11.55zm433.77 158.06c-.484-.637-3.017-1.694-5.627-2.349-7.058-1.772-6.944-1.088-9.33-56.007-2.655-61.148-4.006-55.562 13.286-54.938l13.905.502c.602 21.13 2.459 82.619 2.459 101.86 0 17.388-6.247 22.034-14.693 10.928zM4995.7 2298.3c1.007 1.628.706 235.94 2.29 239.77 2.341 5.667 1.94-1127.3-.438-1236-3.963-181.35-9.671-1284.6-11.812-1301.8h-17.38c6.929 1460.5 27.11 2297.7 27.34 2298z"/></svg>